<svg width="531" height="534" viewBox="0 0 531 534" fill="none" xmlns="http://www.w3.org/2000/svg">
<path fill-rule="evenodd" clip-rule="evenodd" d="M202.263 206.976C202.263 193.971 191.804 183.453 178.872 183.453H104.178C91.2458 183.453 80.7871 193.971 80.7871 206.976C80.7871 219.981 91.2458 230.499 104.178 230.499H178.872C191.734 230.57 202.263 219.981 202.263 206.976Z" fill="#007AFF"/>
<path fill-rule="evenodd" clip-rule="evenodd" d="M79.9388 183.24C81.1402 181.819 80.9282 179.616 79.4442 178.479L72.0242 172.509C70.5402 171.301 68.4202 171.514 67.1482 173.006C65.9468 174.499 66.1588 176.631 67.6428 177.768L75.0628 183.737C76.5468 184.946 78.7375 184.732 79.9388 183.24Z" fill="#007AFF"/>
<path fill-rule="evenodd" clip-rule="evenodd" d="M90.4666 177.057C92.3039 176.631 93.4346 174.712 93.0106 172.864L90.8199 163.91C90.3959 162.062 88.4879 160.925 86.6506 161.351C84.8133 161.778 83.6826 163.697 84.1066 165.544L86.2973 174.499C86.7213 176.346 88.5586 177.483 90.4666 177.057Z" fill="#007AFF"/>
<path fill-rule="evenodd" clip-rule="evenodd" d="M58.8795 193.687C58.8088 195.534 60.2222 197.169 62.1302 197.24L71.2462 197.666C73.1542 197.737 74.7088 196.316 74.7795 194.397C74.8501 192.478 73.4368 190.915 71.5288 190.844L62.4128 190.417C60.5755 190.346 58.9502 191.768 58.8795 193.687Z" fill="#007AFF"/>
<path fill-rule="evenodd" clip-rule="evenodd" d="M349.531 361.404L356.457 415.699L297.662 460.329L305.011 435.1L303.457 349.394L349.531 361.404Z" fill="#F0F4F8" stroke="#003166" stroke-width="0.5" stroke-miterlimit="10" stroke-linecap="round" stroke-linejoin="round"/>
<path fill-rule="evenodd" clip-rule="evenodd" d="M369.812 289.342L416.382 273.21L437.016 345.556L411.789 331.627L372.992 332.622L369.812 289.342Z" fill="#F0F4F8" stroke="#003166" stroke-width="0.5" stroke-miterlimit="10" stroke-linecap="round" stroke-linejoin="round"/>
<path fill-rule="evenodd" clip-rule="evenodd" d="M362.887 256.439L285.084 310.023L377.727 280.53L389.599 340.44C389.599 340.44 200.001 372.42 232.366 306.043C249.962 269.942 319.851 222.54 319.851 222.54L362.887 256.439Z" fill="#F0F4F8" stroke="#003166" stroke-width="0.5" stroke-miterlimit="10" stroke-linecap="round" stroke-linejoin="round"/>
<path fill-rule="evenodd" clip-rule="evenodd" d="M271.797 160.072C286.284 156.092 299.075 174.925 284.376 198.59C269.677 222.255 252.435 236.042 235.969 240.164C225.299 242.793 188.552 220.834 188.552 220.834C188.552 220.834 176.397 224.032 168.271 218.702C161.557 214.225 160.709 202.996 172.157 196.529C182.828 190.559 223.037 205.27 230.104 199.443C235.545 194.966 242.824 185.301 251.728 176.204C258.795 168.955 264.519 162.133 271.797 160.072Z" fill="#F0F4F8" stroke="#003166" stroke-width="0.5" stroke-miterlimit="10" stroke-linecap="round" stroke-linejoin="round"/>
<path fill-rule="evenodd" clip-rule="evenodd" d="M273.493 159.717C288.404 158.225 303.951 167.25 294.764 193.545C289.252 209.109 274.2 221.19 274.2 221.19L244.025 180.682C244.025 180.682 261.127 160.996 273.493 159.717Z" fill="#F0F4F8" stroke="#003166" stroke-width="0.5" stroke-miterlimit="10" stroke-linecap="round" stroke-linejoin="round"/>
<path fill-rule="evenodd" clip-rule="evenodd" d="M174.49 195.748C174.843 195.321 154.138 201.22 149.686 199.941C145.163 198.661 146.718 206.194 154.209 207.474C162.406 208.895 164.455 206.692 168.766 205.839" fill="#F0F4F8"/>
<path d="M174.49 195.748C174.843 195.321 154.138 201.22 149.686 199.941C145.163 198.661 146.718 206.194 154.209 207.474C162.406 208.895 164.455 206.692 168.766 205.839" stroke="#003166" stroke-width="0.5" stroke-miterlimit="10" stroke-linecap="round" stroke-linejoin="round"/>
<path fill-rule="evenodd" clip-rule="evenodd" d="M386.42 217.352C385.643 264.54 365.856 261.911 363.524 318.338C361.192 374.765 359.072 398.643 359.072 398.643L298.723 385.851C298.723 385.851 290.031 324.663 307.839 264.824C324.092 210.174 365.079 172.935 365.079 172.935C365.079 172.935 386.915 186.935 386.42 217.352Z" fill="#F0F4F8" stroke="#003166" stroke-width="0.5" stroke-miterlimit="10" stroke-linecap="round" stroke-linejoin="round"/>
<path fill-rule="evenodd" clip-rule="evenodd" d="M257.383 146.996L282.681 154.742L264.591 170.306L251.164 156.732L257.383 146.996Z" fill="#F0F4F8" stroke="#003166" stroke-width="0.5" stroke-miterlimit="10" stroke-linecap="round" stroke-linejoin="round"/>
<path d="M235.052 148.56L234.062 156.519L238.585 156.874L235.052 148.56Z" stroke="#003166" stroke-width="0.5" stroke-miterlimit="10" stroke-linecap="round" stroke-linejoin="round"/>
<path fill-rule="evenodd" clip-rule="evenodd" d="M243.461 130.935C237.737 131.361 233.709 138.681 234.345 147.209C235.052 155.737 240.211 162.275 245.935 161.849C251.659 161.422 255.687 154.103 255.051 145.575C254.344 137.047 249.185 130.508 243.461 130.935Z" fill="#F0F4F8" stroke="#003166" stroke-width="0.5" stroke-miterlimit="10" stroke-linecap="round" stroke-linejoin="round"/>
<path fill-rule="evenodd" clip-rule="evenodd" d="M221.837 131.716C221.271 138.752 225.794 144.864 231.942 145.361C238.09 145.859 243.532 140.529 244.097 133.493C244.662 126.457 240.139 120.346 233.991 119.848C227.843 119.351 222.402 124.681 221.837 131.716Z" fill="#003166"/>
<path fill-rule="evenodd" clip-rule="evenodd" d="M237.595 149.199C237.736 150.407 238.231 151.331 238.796 151.26C239.362 151.189 239.715 150.194 239.574 148.985C239.432 147.777 238.938 146.853 238.372 146.924C237.878 147.067 237.524 148.062 237.595 149.199Z" fill="#003166"/>
<path fill-rule="evenodd" clip-rule="evenodd" d="M255.474 126.671C250.669 125.818 246.217 128.234 245.581 132.072C244.874 135.91 248.196 139.747 253.001 140.6C257.806 141.453 262.258 139.037 262.894 135.199C263.601 131.361 260.209 127.524 255.474 126.671Z" fill="#003166"/>
<path fill-rule="evenodd" clip-rule="evenodd" d="M244.521 126.244C239.433 125.889 235.051 129.727 234.698 134.701C234.345 139.747 238.231 144.082 243.319 144.437C248.407 144.793 252.789 140.955 253.142 135.98C253.495 130.935 249.609 126.529 244.521 126.244Z" fill="#003166"/>
<path fill-rule="evenodd" clip-rule="evenodd" d="M246.852 123.97C244.308 123.544 241.764 126.671 241.057 130.864C240.421 135.057 241.905 138.823 244.449 139.178C246.993 139.605 249.537 136.478 250.244 132.285C250.88 128.092 249.396 124.325 246.852 123.97Z" fill="#003166"/>
<path fill-rule="evenodd" clip-rule="evenodd" d="M248.196 134.772C245.228 137.189 245.228 142.021 248.125 145.646C251.023 149.199 255.757 150.194 258.725 147.778C261.693 145.361 261.693 140.529 258.796 136.904C255.899 133.351 251.164 132.356 248.196 134.772Z" fill="#003166"/>
<path fill-rule="evenodd" clip-rule="evenodd" d="M253.07 141.523C250.597 141.737 248.76 144.366 248.972 147.493C249.184 150.549 251.445 152.894 253.918 152.681C256.392 152.468 258.229 149.838 258.017 146.711C257.805 143.655 255.544 141.31 253.07 141.523Z" fill="#F0F4F8" stroke="#003166" stroke-width="0.5" stroke-miterlimit="10" stroke-linecap="round" stroke-linejoin="round"/>
<path fill-rule="evenodd" clip-rule="evenodd" d="M269.324 147.351C269.324 147.351 314.48 160.925 367.763 172.935L316.953 241.231C316.953 241.231 280.065 231.352 263.105 175.636L269.324 147.351Z" fill="#F0F4F8" stroke="#003166" stroke-width="0.5" stroke-miterlimit="10" stroke-linecap="round" stroke-linejoin="round"/>
<path fill-rule="evenodd" clip-rule="evenodd" d="M274.2 171.869C267.84 157.869 283.882 143.016 309.958 153.96C336.034 164.905 353.842 180.966 360.696 196.885C366.562 210.6 352.782 242.936 348.612 262.763C346.916 270.865 348.612 256.723 353.206 262.55C354.619 264.327 354.124 271.22 348.471 273.281C343.524 275.058 334.126 273.068 325.858 262.55C318.084 252.743 328.119 216.57 321.123 210.316C315.752 205.555 304.092 199.159 293.492 191.626C285.083 185.656 277.38 178.976 274.2 171.869Z" fill="#F0F4F8" stroke="#003166" stroke-width="0.5" stroke-miterlimit="10" stroke-linecap="round" stroke-linejoin="round"/>
<path fill-rule="evenodd" clip-rule="evenodd" d="M273.352 171.656C269.394 156.803 275.896 139.605 303.668 144.651C320.133 147.636 334.69 160.925 334.69 160.925L299.145 198.022C299.145 198.022 276.602 184.022 273.352 171.656Z" fill="#F0F4F8" stroke="#003166" stroke-width="0.5" stroke-miterlimit="10" stroke-linecap="round" stroke-linejoin="round"/>
<path fill-rule="evenodd" clip-rule="evenodd" d="M130.535 105.919V128.447H142.478V105.848H130.535V105.919ZM141.135 127.097H131.948V107.34H141.135V127.097Z" fill="#003166"/>
<path opacity="0.15" d="M163.184 89.0055H154.068V128.519H163.184V89.0055Z" fill="#007AFF"/>
<path fill-rule="evenodd" clip-rule="evenodd" d="M151.24 85.6653V128.447H163.183V85.6653H151.24ZM161.77 127.097H152.583V87.1577H161.77V127.097Z" fill="#003166"/>
<path fill-rule="evenodd" clip-rule="evenodd" d="M171.875 93.625V128.448H183.818V93.625H171.875ZM182.404 127.097H173.218V95.0463H182.404V127.097Z" fill="#003166"/>
<path opacity="0.15" d="M204.452 71.9495H195.619V128.447H204.452V71.9495Z" fill="#007AFF"/>
<path fill-rule="evenodd" clip-rule="evenodd" d="M192.51 68.4672V128.447H204.452V68.4672H192.51ZM203.11 127.097H193.923V69.8885H203.11V127.097Z" fill="#003166"/>
<path fill-rule="evenodd" clip-rule="evenodd" d="M195.196 343.495C195.196 370.642 173.289 392.744 146.224 392.744C119.229 392.744 97.252 370.713 97.252 343.495C97.252 316.347 119.159 294.246 146.224 294.246V343.495H195.196ZM144.881 295.738C119.3 296.52 98.7359 317.627 98.7359 343.495C98.7359 369.861 120.007 391.323 146.295 391.323C172.088 391.323 193.076 370.642 193.783 344.916H146.295C145.517 344.916 144.881 344.277 144.881 343.495V295.738Z" fill="#003166"/>
<path opacity="0.15" fill-rule="evenodd" clip-rule="evenodd" d="M158.803 282.591C185.797 282.591 207.775 304.621 207.775 331.84H158.803V282.591Z" fill="#007AFF"/>
<path fill-rule="evenodd" clip-rule="evenodd" d="M153.291 287.779C180.286 287.779 202.263 309.81 202.263 337.028H153.291V287.779ZM154.704 289.2V335.607H200.85C200.072 310.307 179.791 289.911 154.704 289.2Z" fill="#003166"/>
<path fill-rule="evenodd" clip-rule="evenodd" d="M366.208 122.478C371.72 122.478 376.172 126.955 376.172 132.498C376.172 138.041 371.72 142.519 366.208 142.519C360.696 142.519 356.244 138.041 356.244 132.498C356.244 126.955 360.767 122.478 366.208 122.478Z" fill="#007AFF"/>
<path d="M402.248 133.351C403.803 128.661 403.025 123.259 399.775 118.995C394.545 112.315 385.005 111.178 378.363 116.437C371.72 121.696 370.589 131.29 375.819 137.97C379.776 143.016 386.277 144.935 392.072 143.229C393.98 142.661 396.029 143.798 396.595 145.717C397.16 147.635 396.029 149.696 394.121 150.265C385.571 152.752 375.96 149.981 370.165 142.519C362.463 132.711 364.159 118.427 373.911 110.752C383.663 103.006 397.867 104.711 405.499 114.518C410.587 120.985 411.576 129.371 408.82 136.549L411.929 138.041L401.753 142.874L399.139 131.859L402.248 133.351Z" stroke="#003166" stroke-width="0.5" stroke-miterlimit="10" stroke-linejoin="round"/>
</svg>
