<svg width="179" height="180" viewBox="0 0 179 180" fill="none" xmlns="http://www.w3.org/2000/svg">
<path fill-rule="evenodd" clip-rule="evenodd" d="M68.1155 69.72C68.1155 65.328 64.5832 61.776 60.2156 61.776H34.9886C30.621 61.776 27.0887 65.328 27.0887 69.72C27.0887 74.112 30.621 77.664 34.9886 77.664H60.2156C64.5594 77.688 68.1155 74.112 68.1155 69.72Z" fill="#007AFF"/>
<path fill-rule="evenodd" clip-rule="evenodd" d="M26.8023 61.704C27.208 61.224 27.1364 60.48 26.6352 60.096L24.1292 58.0801C23.628 57.6721 22.912 57.7441 22.4824 58.2481C22.0767 58.7521 22.1483 59.472 22.6495 59.856L25.1555 61.872C25.6567 62.28 26.3965 62.208 26.8023 61.704Z" fill="#007AFF"/>
<path fill-rule="evenodd" clip-rule="evenodd" d="M30.3584 59.616C30.979 59.472 31.3608 58.8241 31.2176 58.2001L30.4778 55.1761C30.3346 54.5521 29.6902 54.1681 29.0696 54.3121C28.4491 54.4561 28.0672 55.1041 28.2104 55.7281L28.9503 58.7521C29.0935 59.3761 29.714 59.76 30.3584 59.616Z" fill="#007AFF"/>
<path fill-rule="evenodd" clip-rule="evenodd" d="M19.69 65.2319C19.6661 65.8559 20.1435 66.4079 20.7879 66.4319L23.8667 66.5759C24.5111 66.5999 25.0361 66.1199 25.06 65.4719C25.0839 64.8239 24.6065 64.2959 23.9621 64.2719L20.8833 64.1279C20.2628 64.1039 19.7139 64.5839 19.69 65.2319Z" fill="#007AFF"/>
<path fill-rule="evenodd" clip-rule="evenodd" d="M117.854 121.872L120.193 140.208L100.335 155.28L102.818 146.76L102.293 117.816L117.854 121.872Z" fill="#F8F9FC" stroke="#003166" stroke-width="0.5" stroke-miterlimit="10" stroke-linecap="round" stroke-linejoin="round"/>
<path fill-rule="evenodd" clip-rule="evenodd" d="M124.703 97.536L140.431 92.088L147.401 116.52L138.88 111.816L125.777 112.152L124.703 97.536Z" fill="#F8F9FC" stroke="#003166" stroke-width="0.5" stroke-miterlimit="10" stroke-linecap="round" stroke-linejoin="round"/>
<path fill-rule="evenodd" clip-rule="evenodd" d="M122.364 86.4241L96.0872 104.52L127.376 94.5601L131.386 114.792C131.386 114.792 67.3517 125.592 78.2827 103.176C84.2255 90.9841 107.83 74.9761 107.83 74.9761L122.364 86.4241Z" fill="#F8F9FC" stroke="#003166" stroke-width="0.5" stroke-miterlimit="10" stroke-linecap="round" stroke-linejoin="round"/>
<path fill-rule="evenodd" clip-rule="evenodd" d="M91.6003 53.8799C96.4929 52.5359 100.813 58.8959 95.8485 66.8879C90.8843 74.8799 85.0608 79.5359 79.4999 80.9279C75.896 81.8159 63.4853 74.3999 63.4853 74.3999C63.4853 74.3999 59.3803 75.4799 56.6356 73.6799C54.3683 72.1679 54.0819 68.3759 57.9483 66.1919C61.5521 64.1759 75.1323 69.1439 77.5189 67.1759C79.3567 65.6639 81.8149 62.3999 84.8221 59.3279C87.2088 56.8799 89.142 54.5759 91.6003 53.8799Z" fill="#F8F9FC" stroke="#003166" stroke-width="0.5" stroke-miterlimit="10" stroke-linecap="round" stroke-linejoin="round"/>
<path fill-rule="evenodd" clip-rule="evenodd" d="M92.1731 53.7601C97.209 53.2561 102.46 56.3041 99.3569 65.1841C97.4953 70.4401 92.4118 74.5201 92.4118 74.5201L82.2207 60.8401C82.2207 60.8401 87.9964 54.1921 92.1731 53.7601Z" fill="#F8F9FC" stroke="#003166" stroke-width="0.5" stroke-miterlimit="10" stroke-linecap="round" stroke-linejoin="round"/>
<path fill-rule="evenodd" clip-rule="evenodd" d="M58.7359 65.928C58.8552 65.784 51.8623 67.776 50.3587 67.344C48.8312 66.912 49.3563 69.456 51.8861 69.888C54.6547 70.368 55.3468 69.624 56.8027 69.336" fill="#F8F9FC"/>
<path d="M58.7359 65.928C58.8552 65.784 51.8623 67.776 50.3587 67.344C48.8312 66.912 49.3563 69.456 51.8861 69.888C54.6547 70.368 55.3468 69.624 56.8027 69.336" stroke="#003166" stroke-width="0.5" stroke-miterlimit="10" stroke-linecap="round" stroke-linejoin="round"/>
<path fill-rule="evenodd" clip-rule="evenodd" d="M130.312 73.2239C130.05 89.1599 123.367 88.2719 122.579 107.328C121.792 126.384 121.076 134.448 121.076 134.448L100.693 130.128C100.693 130.128 97.7579 109.464 103.772 89.2559C109.262 70.7999 123.104 58.2239 123.104 58.2239C123.104 58.2239 130.479 62.9519 130.312 73.2239Z" fill="#F8F9FC" stroke="#003166" stroke-width="0.5" stroke-miterlimit="10" stroke-linecap="round" stroke-linejoin="round"/>
<path fill-rule="evenodd" clip-rule="evenodd" d="M86.7314 49.4641L95.2757 52.0801L89.1658 57.3361L84.6312 52.7521L86.7314 49.4641Z" fill="#F8F9FC" stroke="#003166" stroke-width="0.5" stroke-miterlimit="10" stroke-linecap="round" stroke-linejoin="round"/>
<path d="M79.1896 49.9921L78.8555 52.6801L80.3829 52.8001L79.1896 49.9921Z" stroke="#003166" stroke-width="0.5" stroke-miterlimit="10" stroke-linecap="round" stroke-linejoin="round"/>
<path fill-rule="evenodd" clip-rule="evenodd" d="M82.0297 44.04C80.0965 44.184 78.7361 46.656 78.9509 49.536C79.1896 52.416 80.9318 54.624 82.865 54.48C84.7982 54.336 86.1586 51.864 85.9438 48.984C85.7052 46.104 83.9629 43.896 82.0297 44.04Z" fill="#F8F9FC" stroke="#003166" stroke-width="0.5" stroke-miterlimit="10" stroke-linecap="round" stroke-linejoin="round"/>
<path fill-rule="evenodd" clip-rule="evenodd" d="M74.7264 44.3039C74.5355 46.6799 76.063 48.7439 78.1394 48.9119C80.2158 49.0799 82.0535 47.2799 82.2445 44.9039C82.4354 42.5279 80.9079 40.4639 78.8315 40.2959C76.7551 40.1279 74.9174 41.9279 74.7264 44.3039Z" fill="#003166"/>
<path fill-rule="evenodd" clip-rule="evenodd" d="M80.0488 50.2079C80.0965 50.6159 80.2636 50.9279 80.4545 50.9039C80.6454 50.8799 80.7648 50.5439 80.717 50.1359C80.6693 49.7279 80.5022 49.4159 80.3113 49.4399C80.1442 49.4879 80.0249 49.8239 80.0488 50.2079Z" fill="#003166"/>
<path fill-rule="evenodd" clip-rule="evenodd" d="M86.087 42.6001C84.4641 42.3121 82.9605 43.1281 82.7457 44.4241C82.507 45.7201 83.6288 47.0161 85.2517 47.3041C86.8746 47.5921 88.3782 46.7761 88.593 45.4801C88.8317 44.1841 87.6861 42.8881 86.087 42.6001Z" fill="#003166"/>
<path fill-rule="evenodd" clip-rule="evenodd" d="M82.3878 42.4559C80.6694 42.3359 79.1897 43.632 79.0703 45.312C78.951 47.016 80.2637 48.48 81.9821 48.6C83.7005 48.72 85.1802 47.424 85.2995 45.744C85.4189 44.04 84.1062 42.5519 82.3878 42.4559Z" fill="#003166"/>
<path fill-rule="evenodd" clip-rule="evenodd" d="M83.1754 41.688C82.3162 41.544 81.457 42.6 81.2183 44.016C81.0035 45.432 81.5047 46.704 82.3639 46.824C83.2231 46.968 84.0823 45.912 84.321 44.496C84.5358 43.08 84.0346 41.808 83.1754 41.688Z" fill="#003166"/>
<path fill-rule="evenodd" clip-rule="evenodd" d="M83.6288 45.336C82.6264 46.152 82.6264 47.784 83.605 49.008C84.5835 50.208 86.1826 50.544 87.185 49.728C88.1874 48.912 88.1874 47.28 87.2088 46.056C86.2303 44.856 84.6312 44.52 83.6288 45.336Z" fill="#003166"/>
<path fill-rule="evenodd" clip-rule="evenodd" d="M85.2756 47.6159C84.4403 47.6879 83.8198 48.5759 83.8914 49.6319C83.963 50.6639 84.7267 51.4559 85.562 51.3839C86.3974 51.3119 87.0179 50.4239 86.9463 49.3679C86.8747 48.3359 86.111 47.5439 85.2756 47.6159Z" fill="#F8F9FC" stroke="#003166" stroke-width="0.5" stroke-miterlimit="10" stroke-linecap="round" stroke-linejoin="round"/>
<path fill-rule="evenodd" clip-rule="evenodd" d="M90.7649 49.5841C90.7649 49.5841 106.016 54.1681 124.011 58.2241L106.851 81.2881C106.851 81.2881 94.3926 77.9521 88.6646 59.1361L90.7649 49.5841Z" fill="#F8F9FC" stroke="#003166" stroke-width="0.5" stroke-miterlimit="10" stroke-linecap="round" stroke-linejoin="round"/>
<path fill-rule="evenodd" clip-rule="evenodd" d="M92.4117 57.8639C90.2637 53.1359 95.6815 48.1199 104.488 51.8159C113.295 55.5119 119.309 60.9359 121.625 66.3119C123.605 70.9439 118.951 81.864 117.543 88.56C116.971 91.296 117.543 86.52 119.095 88.488C119.572 89.088 119.405 91.416 117.496 92.1119C115.825 92.7119 112.651 92.04 109.858 88.488C107.233 85.176 110.622 72.96 108.259 70.848C106.445 69.24 102.507 67.0799 98.9273 64.5359C96.0872 62.5199 93.4857 60.2639 92.4117 57.8639Z" fill="#F8F9FC" stroke="#003166" stroke-width="0.5" stroke-miterlimit="10" stroke-linecap="round" stroke-linejoin="round"/>
<path fill-rule="evenodd" clip-rule="evenodd" d="M92.1254 57.7921C90.7888 52.7761 92.9846 46.9681 102.364 48.6721C107.925 49.6801 112.842 54.1681 112.842 54.1681L100.837 66.6961C100.837 66.6961 93.2232 61.9681 92.1254 57.7921Z" fill="#F8F9FC" stroke="#003166" stroke-width="0.5" stroke-miterlimit="10" stroke-linecap="round" stroke-linejoin="round"/>
<path fill-rule="evenodd" clip-rule="evenodd" d="M43.8908 35.5919V43.1999H47.9243V35.5679H43.8908V35.5919ZM47.4708 42.7439H44.3681V36.0719H47.4708V42.7439Z" fill="#003166"/>
<path opacity="0.15" d="M54.9172 29.88H51.8384V43.224H54.9172V29.88Z" fill="#007AFF"/>
<path fill-rule="evenodd" clip-rule="evenodd" d="M50.8837 28.752V43.2H54.9172V28.752H50.8837ZM54.4399 42.744H51.3372V29.256H54.4399V42.744Z" fill="#003166"/>
<path fill-rule="evenodd" clip-rule="evenodd" d="M57.8528 31.4401V43.2001H61.8862V31.4401H57.8528ZM61.4089 42.7441H58.3063V31.9201H61.4089V42.7441Z" fill="#003166"/>
<path opacity="0.15" d="M68.8553 24.12H65.872V43.2H68.8553V24.12Z" fill="#007AFF"/>
<path fill-rule="evenodd" clip-rule="evenodd" d="M64.8218 22.944V43.2H68.8553V22.944H64.8218ZM68.4018 42.744H65.2992V23.424H68.4018V42.744Z" fill="#003166"/>
<path fill-rule="evenodd" clip-rule="evenodd" d="M65.7288 115.824C65.7288 124.992 58.3301 132.456 49.1892 132.456C40.0721 132.456 32.6496 125.016 32.6496 115.824C32.6496 106.656 40.0483 99.1919 49.1892 99.1919V115.824H65.7288ZM48.7357 99.6959C40.096 99.9599 33.1508 107.088 33.1508 115.824C33.1508 124.728 40.3347 131.976 49.2131 131.976C57.9244 131.976 65.0128 124.992 65.2515 116.304H49.2131C48.9505 116.304 48.7357 116.088 48.7357 115.824V99.6959Z" fill="#003166"/>
<path opacity="0.15" fill-rule="evenodd" clip-rule="evenodd" d="M53.4374 95.256C62.5545 95.256 69.9771 102.696 69.9771 111.888H53.4374V95.256Z" fill="#007AFF"/>
<path fill-rule="evenodd" clip-rule="evenodd" d="M51.5759 97.008C60.6929 97.008 68.1155 104.448 68.1155 113.64H51.5759V97.008ZM52.0532 97.488V113.16H67.6381C67.3756 104.616 60.5259 97.728 52.0532 97.488Z" fill="#003166"/>
<path fill-rule="evenodd" clip-rule="evenodd" d="M123.486 41.184C125.348 41.184 126.851 42.696 126.851 44.568C126.851 46.44 125.348 47.952 123.486 47.952C121.625 47.952 120.121 46.44 120.121 44.568C120.121 42.696 121.648 41.184 123.486 41.184Z" fill="#007AFF"/>
<path d="M135.658 44.856C136.183 43.272 135.921 41.448 134.823 40.008C133.057 37.752 129.835 37.368 127.591 39.144C125.348 40.92 124.966 44.16 126.732 46.416C128.069 48.12 130.264 48.768 132.221 48.192C132.866 48 133.558 48.384 133.749 49.032C133.94 49.68 133.558 50.376 132.913 50.568C130.026 51.408 126.78 50.472 124.823 47.952C122.221 44.64 122.794 39.816 126.088 37.224C129.381 34.608 134.178 35.184 136.756 38.496C138.474 40.68 138.809 43.512 137.878 45.936L138.928 46.44L135.491 48.072L134.608 44.352L135.658 44.856Z" stroke="#003166" stroke-width="0.5" stroke-miterlimit="10" stroke-linejoin="round"/>
</svg>
