<svg width="25" height="25" viewBox="0 0 25 25" fill="none" xmlns="http://www.w3.org/2000/svg">
<path fill-rule="evenodd" clip-rule="evenodd" d="M13.7637 5.73767C13.7637 6.29067 13.3157 6.73767 12.7637 6.73767C12.2117 6.73767 11.7637 6.29067 11.7637 5.73767V3.73767C11.7637 3.18467 12.2117 2.73767 12.7637 2.73767C13.3157 2.73767 13.7637 3.18467 13.7637 3.73767V5.73767ZM7.76367 12.7377C7.76367 9.98067 10.0067 7.73767 12.7637 7.73767C15.5207 7.73767 17.7637 9.98067 17.7637 12.7377C17.7637 14.3167 17.0097 15.7997 15.7637 16.7337V20.7377C15.7637 21.8407 14.8667 22.7377 13.7637 22.7377H11.7637C10.6607 22.7377 9.76367 21.8407 9.76367 20.7377V16.7337C8.51667 15.7997 7.76367 14.3167 7.76367 12.7377ZM21.7637 11.7377H19.7637C19.2107 11.7377 18.7637 12.1847 18.7637 12.7377C18.7637 13.2907 19.2107 13.7377 19.7637 13.7377H21.7637C22.3167 13.7377 22.7637 13.2907 22.7637 12.7377C22.7637 12.1847 22.3167 11.7377 21.7637 11.7377ZM3.76367 11.7377H5.76367C6.31567 11.7377 6.76367 12.1847 6.76367 12.7377C6.76367 13.2907 6.31567 13.7377 5.76367 13.7377H3.76367C3.21167 13.7377 2.76367 13.2907 2.76367 12.7377C2.76367 12.1847 3.21167 11.7377 3.76367 11.7377ZM8.42337 7.15567L6.98437 5.76567C6.58737 5.38267 5.95537 5.39467 5.57037 5.79167C5.18637 6.18767 5.19737 6.82167 5.59437 7.20567L7.03337 8.59467C7.22837 8.78267 7.47837 8.87567 7.72837 8.87567C7.99037 8.87567 8.25137 8.77267 8.44737 8.56967C8.83137 8.17367 8.82037 7.53967 8.42337 7.15567ZM18.5431 5.76737C18.9391 5.38437 19.5751 5.39537 19.9561 5.79137C20.3401 6.18737 20.3291 6.82137 19.9321 7.20437L18.4931 8.59437C18.3001 8.78137 18.0491 8.87537 17.7991 8.87537C17.5371 8.87537 17.2751 8.77237 17.0801 8.56937C16.6961 8.17337 16.7071 7.53937 17.1041 7.15637L18.5431 5.76737Z" fill="white"/>
<mask id="mask0" mask-type="alpha" maskUnits="userSpaceOnUse" x="2" y="2" width="21" height="21">
<path fill-rule="evenodd" clip-rule="evenodd" d="M13.7637 5.73767C13.7637 6.29067 13.3157 6.73767 12.7637 6.73767C12.2117 6.73767 11.7637 6.29067 11.7637 5.73767V3.73767C11.7637 3.18467 12.2117 2.73767 12.7637 2.73767C13.3157 2.73767 13.7637 3.18467 13.7637 3.73767V5.73767ZM7.76367 12.7377C7.76367 9.98067 10.0067 7.73767 12.7637 7.73767C15.5207 7.73767 17.7637 9.98067 17.7637 12.7377C17.7637 14.3167 17.0097 15.7997 15.7637 16.7337V20.7377C15.7637 21.8407 14.8667 22.7377 13.7637 22.7377H11.7637C10.6607 22.7377 9.76367 21.8407 9.76367 20.7377V16.7337C8.51667 15.7997 7.76367 14.3167 7.76367 12.7377ZM21.7637 11.7377H19.7637C19.2107 11.7377 18.7637 12.1847 18.7637 12.7377C18.7637 13.2907 19.2107 13.7377 19.7637 13.7377H21.7637C22.3167 13.7377 22.7637 13.2907 22.7637 12.7377C22.7637 12.1847 22.3167 11.7377 21.7637 11.7377ZM3.76367 11.7377H5.76367C6.31567 11.7377 6.76367 12.1847 6.76367 12.7377C6.76367 13.2907 6.31567 13.7377 5.76367 13.7377H3.76367C3.21167 13.7377 2.76367 13.2907 2.76367 12.7377C2.76367 12.1847 3.21167 11.7377 3.76367 11.7377ZM8.42337 7.15567L6.98437 5.76567C6.58737 5.38267 5.95537 5.39467 5.57037 5.79167C5.18637 6.18767 5.19737 6.82167 5.59437 7.20567L7.03337 8.59467C7.22837 8.78267 7.47837 8.87567 7.72837 8.87567C7.99037 8.87567 8.25137 8.77267 8.44737 8.56967C8.83137 8.17367 8.82037 7.53967 8.42337 7.15567ZM18.5431 5.76737C18.9391 5.38437 19.5751 5.39537 19.9561 5.79137C20.3401 6.18737 20.3291 6.82137 19.9321 7.20437L18.4931 8.59437C18.3001 8.78137 18.0491 8.87537 17.7991 8.87537C17.5371 8.87537 17.2751 8.77237 17.0801 8.56937C16.6961 8.17337 16.7071 7.53937 17.1041 7.15637L18.5431 5.76737Z" fill="white"/>
</mask>
<g mask="url(#mask0)">
<rect x="0.763672" y="0.737671" width="24" height="24" fill="white"/>
</g>
</svg>
