<svg width="168" height="125" viewBox="0 0 168 125" fill="none" xmlns="http://www.w3.org/2000/svg">
<path d="M12.7631 31.4034C13.5656 32.7635 14.3986 34.3366 15.2949 35.7433C13.4542 33.1429 11.0237 35.4164 11.049 38.1891C11.0794 41.5804 13.9505 42.1204 16.1835 42.3451C18.9685 42.637 21.4826 42.2108 23.3637 39.4528C24.9233 37.1676 25.8221 35.1508 24.1562 32.7401C22.4902 30.3294 20.28 27.5305 18.29 25.6918" stroke="#333333" stroke-linecap="round" stroke-linejoin="round"/>
<path d="M5.55094 45.8471C3.87489 43.5823 2.39379 41.1774 1.60386 38.075C0.745585 34.7216 0.467088 32.7632 0.616464 29.2055C0.884835 22.7846 6.83963 19.8515 10.6399 15.8063C12.6248 13.6933 14.8781 12.0122 17.0276 10.1793C18.5467 8.88934 21.3949 6.67707 23.1951 6.67707C25.8104 6.65956 27.5244 10.0801 29.0182 12.0764C30.9069 14.6068 32.5121 16.7461 34.1451 19.4896C35.3046 21.445 37.0718 23.9929 36.1376 26.5116C35.3781 28.5546 32.6184 29.8417 30.798 29.6666" stroke="#333333" stroke-linecap="round" stroke-linejoin="round"/>
<path d="M23.7754 18.0568C25.6945 19.017 29.2669 24.9154 30.0441 27.2415C31.6873 32.1447 27.2794 32.5358 24.9248 34.3657" stroke="#333333" stroke-linecap="round" stroke-linejoin="round"/>
<path d="M6.88034 54.3813C10.2223 54.5447 13.6909 53.4065 16.9215 52.4054C19.3573 51.6613 21.6721 50.4657 23.775 48.8652C23.775 48.8652 28.4032 58.943 27.8487 60.5161C27.0461 62.7984 21.2205 64.5671 19.6001 65.0311C16.291 65.9767 12.387 67.0449 8.42727 67.0449C7.62722 62.9443 6.70818 58.4994 5.95117 54.425C6.29043 54.2587 6.41196 54.4396 6.88034 54.3813Z" stroke="#333333" stroke-linecap="round" stroke-linejoin="round"/>
<path d="M33.6467 29.2175C36.1531 33.1196 33.5555 34.7452 30.6085 37.3107C29.0742 38.6474 25.2056 41.1369 24.1777 38.0082" stroke="#333333" stroke-linecap="round" stroke-linejoin="round"/>
<path d="M6.87967 54.3812C6.87967 54.3812 4.08203 46.1888 3.87695 43.3782" stroke="#333333" stroke-linecap="round" stroke-linejoin="round"/>
<path d="M28.5225 39.2834C27.5098 43.3694 22.8994 47.7794 19.2207 46.9418" stroke="#333333" stroke-linecap="round" stroke-linejoin="round"/>
<path d="M22.0664 46.723L23.0158 49.1308" stroke="#333333" stroke-linecap="round" stroke-linejoin="round"/>
<path d="M8.58908 66.6364C6.48009 72.418 5.27242 78.5061 10.0677 83.6895C6.91303 83.3422 6.88011 93.0289 8.2245 95.7548" stroke="#333333" stroke-linecap="round" stroke-linejoin="round"/>
<path d="M27.8477 60.516C29.7288 60.2387 32.4935 62.2438 34.0252 63.7556C38.6002 68.2648 40.0687 73.9063 42.4232 80.1754C46.3349 90.583 49.7401 101.773 58.6267 107.782C62.2903 110.263 66.1234 110.488 70.273 109.749C75.5214 108.815 79.6027 107.303 84.1447 104.496C89.0944 101.434 93.0719 96.6682 97.3455 92.4713C100.953 88.9253 104.369 84.8597 107.845 81.0889C111.215 77.4349 114.519 73.8917 116.813 69.3213" stroke="#333333" stroke-linecap="round" stroke-linejoin="round"/>
<path d="M26.623 8.72332C32.0006 7.9966 38.8035 8.80212 42.0316 8.97431C44.8014 9.12316 47.6167 9.4442 50.4017 9.30411C51.6524 9.2399 54.007 8.42854 54.9868 10.5036C57.8072 16.475 44.414 16.3203 42.943 16.475C39.6365 16.8252 31.8031 16.6093 32.2538 16.5217" stroke="#333333" stroke-linecap="round" stroke-linejoin="round"/>
<path d="M47.5417 16.1656C47.5214 18.3517 47.9468 24.6937 49.0988 30.0784" stroke="#333333" stroke-linecap="round" stroke-linejoin="round"/>
<path d="M145.266 63.0814C145.266 60.2796 145.19 56.4125 145.076 53.6807C144.805 47.2599 144.998 40.839 144.823 34.4182C146.38 34.0797 148.874 33.9366 150.011 33.8082C151.975 33.5893 153.92 33.5514 154.755 31.0794C155.482 28.9342 154.925 26.1616 153.236 24.8366C150.793 22.9191 147.286 24.3141 144.284 24.8803C143.843 20.1027 142.98 15.1119 140.896 11.4549C138.952 8.02564 133.245 6.45837 129.857 6.86113C125.807 7.33977 122.53 8.6648 118.971 10.8566C112.482 14.8405 106.362 20.6455 101.248 26.7716C103.314 27.6238 116.976 30.1104 116.976 30.1104C116.94 32.241 116.976 35.2558 116.976 37.7191C116.976 42.2137 117.735 63.1106 117.735 68.6238" stroke="#333333" stroke-linecap="round" stroke-linejoin="round"/>
<path d="M125.893 37.1063C128.781 37.3135 130.895 35.3756 131.303 34.0681" stroke="#333333" stroke-linecap="round" stroke-linejoin="round"/>
<path d="M125.522 19.8079L125.143 21.775" stroke="#333333" stroke-linecap="round" stroke-linejoin="round"/>
<path d="M130.974 21.095L130.514 22.674" stroke="#333333" stroke-linecap="round" stroke-linejoin="round"/>
<path d="M117.359 68.5947C121.608 71.2739 126.755 71.4199 131.596 69.9664C134.411 69.12 136.844 67.436 139.665 66.2102C141.5 65.4134 145.688 62.1096 147.116 63.3413C149.245 65.18 149.093 68.5947 149.141 74.7237C152.298 78.7571 154.997 83.1525 158.316 87.0371C160.982 90.157 162.43 93.7498 164.42 97.4564C165.107 98.7318 166.426 101.379 166.714 102.514" stroke="#333333" stroke-linecap="round" stroke-linejoin="round"/>
<path d="M117.929 73.6381C117.782 76.1919 118.861 81.3811 120.871 82.8287C124.309 85.3066 129.087 76.1802 130.854 73.6994C130.93 77.2017 133.763 83.999 135.89 86.4331C137.257 88.0004 138.361 87.3729 139.888 86.1208C141.237 85.0147 146.736 78.6551 146.736 78.6551" stroke="#333333" stroke-linecap="round" stroke-linejoin="round"/>
<path d="M130.268 85.2304C130.268 93.3265 129.128 102.079 127.607 109.904C127.68 107.569 125.511 104.473 123.384 105.15C119.895 106.265 118.857 113.829 117.751 116.952C116.031 114.124 111.477 114.124 108.818 123.755" stroke="#333333" stroke-linecap="round" stroke-linejoin="round"/>
<path d="M145.266 110.978C145.266 110.978 152.481 109.186 157.925 109.574" stroke="#333333" stroke-linecap="round" stroke-linejoin="round"/>
<path d="M153.617 106.244C154.455 108.705 155.015 110.978 154.944 113.684" stroke="#333333" stroke-linecap="round" stroke-linejoin="round"/>
<path d="M150.58 105.15C152.289 109.72 152.654 115.146 152.859 120.034" stroke="#333333" stroke-linecap="round" stroke-linejoin="round"/>
<path d="M131.027 104.493L132.357 104.712" stroke="#333333" stroke-linecap="round" stroke-linejoin="round"/>
<path d="M121.535 113.684C121.702 113.861 121.891 114.009 122.095 114.124" stroke="#333333" stroke-linecap="round" stroke-linejoin="round"/>
<path d="M144.907 40.8246C146.356 38.8437 147.395 36.5081 147.945 33.9951C146.876 34.0943 145.694 34.2228 144.811 34.4154C144.881 36.5489 144.899 38.6882 144.907 40.8246Z" fill="#333333"/>
<path d="M148.626 23.9699C148.568 22.7616 148.477 21.565 148.373 20.3888C148.079 17.1142 147.614 13.5915 145.672 11.0231C145.583 10.9035 145.487 10.7867 145.391 10.6729C144.997 9.84525 144.44 9.13555 143.765 8.6007C143.274 8.19685 142.718 7.91119 142.129 7.76076C141.54 7.61033 140.93 7.59821 140.337 7.72513C139.985 3.70043 136.205 0.244851 132.777 0.624264C130.643 0.860668 128.726 2.14484 126.921 3.35604C124.863 4.7336 122.493 6.1783 120.085 5.2356C119.344 4.94374 118.845 6.11117 119.349 6.69488C124.108 12.3744 131.58 14.2832 137.988 11.744C137.493 14.6462 137.592 17.6416 138.277 20.492C138.962 23.3424 140.215 25.9693 141.935 28.1638C142.017 28.2584 142.117 28.33 142.227 28.3731C142.337 28.4162 142.454 28.4297 142.569 28.4125C142.684 28.3953 142.794 28.3479 142.891 28.274C142.988 28.2 143.069 28.1014 143.127 27.9858C143.591 26.9672 144.008 25.9195 144.393 24.8542C145.738 24.5974 147.203 24.1713 148.626 23.9699Z" fill="#333333"/>
<path d="M147.352 29.4363C148.278 29.1444 149.212 28.7796 150.2 28.7796" stroke="#333333" stroke-linecap="round" stroke-linejoin="round"/>
<path d="M51.144 27.1014H47.1843C46.2368 27.1022 45.3283 27.5362 44.6581 28.3082C43.9879 29.0803 43.6107 30.1273 43.6094 31.2195V31.6106C43.61 32.7028 43.9866 33.7501 44.6563 34.5227C45.326 35.2953 46.2343 35.73 47.1817 35.7316H47.878C47.878 36.2306 47.878 36.8435 47.878 37.5469C47.84 44.9396 47.8071 52.9423 47.8932 54.3287C47.9143 54.6598 48.0431 54.9695 48.2539 55.1958C48.4647 55.422 48.7419 55.548 49.03 55.5486H49.1135C49.2628 55.536 49.4085 55.4897 49.5423 55.4122C49.676 55.3346 49.7952 55.2275 49.893 55.0969C49.9908 54.9662 50.0654 54.8146 50.1123 54.6508C50.1593 54.4869 50.1778 54.314 50.1667 54.1419C50.1667 54.0222 50.1515 53.8296 50.1465 53.5815H52.258C52.5602 53.5815 52.85 53.4431 53.0636 53.1968C53.2773 52.9505 53.3973 52.6165 53.3973 52.2682C53.3973 51.9198 53.2773 51.5858 53.0636 51.3395C52.85 51.0932 52.5602 50.9548 52.258 50.9548H51.4985C51.8006 50.9548 52.0904 50.8164 52.3041 50.5701C52.5177 50.3238 52.6378 49.9898 52.6378 49.6414C52.6378 49.2931 52.5177 48.9591 52.3041 48.7128C52.0904 48.4665 51.8006 48.3281 51.4985 48.3281H50.1186C50.1186 44.7266 50.1414 40.3166 50.1566 37.5644C50.1566 36.8581 50.1566 36.2394 50.1566 35.7345H51.1415C52.0892 35.733 52.9977 35.2983 53.6678 34.5258C54.338 33.7533 54.715 32.706 54.7164 31.6135V31.2224C54.7157 30.1302 54.3392 29.0829 53.6695 28.3103C52.9997 27.5377 52.0915 27.1029 51.144 27.1014ZM52.4403 31.6106C52.4396 32.0066 52.3028 32.3863 52.0599 32.6663C51.8169 32.9464 51.4876 33.1041 51.144 33.1049H47.1843C46.8409 33.1041 46.5119 32.9463 46.2693 32.6662C46.0268 32.386 45.8905 32.0064 45.8905 31.6106V31.2195C45.8905 30.8239 46.0268 30.4446 46.2695 30.1649C46.5121 29.8852 46.8412 29.7281 47.1843 29.7281H51.144C51.4874 29.7281 51.8167 29.8851 52.0597 30.1647C52.3028 30.4443 52.4396 30.8237 52.4403 31.2195V31.6106Z" fill="#FF9072"/>
<path d="M49.0977 30.0697C50.0851 25.6918 50.8219 21.6438 50.913 17.6891C50.9485 16.0343 51.5612 9.65432 50.4953 8.4402C49.5383 7.35158 48.8775 8.08706 48.4395 9.24281" stroke="#333333" stroke-linecap="round" stroke-linejoin="round"/>
</svg>
