<svg width="20" height="20" viewBox="0 0 20 20" fill="none" xmlns="http://www.w3.org/2000/svg">
<circle cx="9.75311" cy="9.75311" r="9.75311" fill="#007AFF"/>
<mask id="mask0" mask-type="alpha" maskUnits="userSpaceOnUse" x="6" y="6" width="8" height="8">
<path d="M6.16654 13.3394C6.36776 13.5406 6.69487 13.5406 6.89609 13.3394L9.75237 10.4831L12.6087 13.3394C12.8099 13.5406 13.137 13.5406 13.3382 13.3394C13.5394 13.1381 13.5394 12.811 13.3382 12.6098L10.4819 9.75353L13.3382 6.89725C13.5394 6.69603 13.5394 6.36892 13.3382 6.1677C13.137 5.96648 12.8099 5.96648 12.6087 6.1677L9.75237 9.02398L6.89609 6.1677C6.69487 5.96648 6.36776 5.96648 6.16654 6.1677C5.96532 6.36892 5.96532 6.69603 6.16654 6.89725L9.02282 9.75353L6.16654 12.6098C5.96532 12.811 5.96532 13.1381 6.16654 13.3394Z" fill="white"/>
</mask>
<g mask="url(#mask0)">
<path d="M6.16654 13.3394C6.36776 13.5406 6.69487 13.5406 6.89609 13.3394L9.75237 10.4831L12.6087 13.3394C12.8099 13.5406 13.137 13.5406 13.3382 13.3394C13.5394 13.1381 13.5394 12.811 13.3382 12.6098L10.4819 9.75353L13.3382 6.89725C13.5394 6.69603 13.5394 6.36892 13.3382 6.1677C13.137 5.96648 12.8099 5.96648 12.6087 6.1677L9.75237 9.02398L6.89609 6.1677C6.69487 5.96648 6.36776 5.96648 6.16654 6.1677C5.96532 6.36892 5.96532 6.69603 6.16654 6.89725L9.02282 9.75353L6.16654 12.6098C5.96532 12.811 5.96532 13.1381 6.16654 13.3394Z" fill="white"/>
</g>
</svg>
