<svg width="30" height="30" viewBox="0 0 30 30" fill="none" xmlns="http://www.w3.org/2000/svg">
<mask id="mask0" mask-type="alpha" maskUnits="userSpaceOnUse" x="0" y="0" width="30" height="30">
<path d="M0.785145 29.3253C1.58591 30.126 2.88767 30.126 3.68843 29.3253L15.0552 17.9585L26.422 29.3253C27.2227 30.126 28.5245 30.126 29.3253 29.3253C30.126 28.5245 30.126 27.2227 29.3253 26.422L17.9585 15.0552L29.3253 3.68843C30.126 2.88767 30.126 1.58591 29.3253 0.785145C28.5245 -0.0156211 27.2227 -0.0156211 26.422 0.785145L15.0552 12.1519L3.68843 0.785145C2.88767 -0.0156211 1.58591 -0.0156211 0.785145 0.785145C-0.0156211 1.58591 -0.0156211 2.88767 0.785145 3.68843L12.1519 15.0552L0.785145 26.422C-0.0156211 27.2227 -0.0156211 28.5245 0.785145 29.3253Z" fill="white"/>
</mask>
<g mask="url(#mask0)">
<path d="M0.785145 29.3253C1.58591 30.126 2.88767 30.126 3.68843 29.3253L15.0552 17.9585L26.422 29.3253C27.2227 30.126 28.5245 30.126 29.3253 29.3253C30.126 28.5245 30.126 27.2227 29.3253 26.422L17.9585 15.0552L29.3253 3.68843C30.126 2.88767 30.126 1.58591 29.3253 0.785145C28.5245 -0.0156211 27.2227 -0.0156211 26.422 0.785145L15.0552 12.1519L3.68843 0.785145C2.88767 -0.0156211 1.58591 -0.0156211 0.785145 0.785145C-0.0156211 1.58591 -0.0156211 2.88767 0.785145 3.68843L12.1519 15.0552L0.785145 26.422C-0.0156211 27.2227 -0.0156211 28.5245 0.785145 29.3253Z" fill="white"/>
</g>
</svg>
