<svg width="367" height="368" viewBox="0 0 367 368" fill="none" xmlns="http://www.w3.org/2000/svg">
<path d="M196.787 203.689L32.0204 203.695C28.8982 203.695 26.3673 206.226 26.3674 209.348L26.3718 323.864C26.3719 326.987 28.903 329.518 32.0252 329.517L196.792 329.511C199.914 329.511 202.445 326.98 202.445 323.858L202.44 209.342C202.44 206.219 199.909 203.688 196.787 203.689Z" fill="#E5E6EB"/>
<path d="M31.0425 208.21C28.4615 208.21 26.3673 210.492 26.3674 213.306L26.3975 228.31L110.39 281.273C113.693 283.567 118.075 283.567 121.378 281.273L202.608 228.303L202.637 213.299C202.637 210.485 200.544 208.203 197.961 208.203L31.0425 208.21Z" fill="#DADADA"/>
<path d="M31.0425 203.695C28.4615 203.695 26.3673 205.977 26.3674 208.791L26.3975 223.795L110.39 276.759C113.693 279.052 118.075 279.052 121.378 276.758L202.608 223.788L202.637 208.784C202.637 205.97 200.544 203.688 197.961 203.689L31.0425 203.695Z" fill="#E5E6EB"/>
<path fill-rule="evenodd" clip-rule="evenodd" d="M167.456 220.311C167.456 220.311 167.897 214.567 165.936 207.402C163.976 200.238 158.656 191.659 158.6 183.046C158.544 174.435 151.175 181.659 155.347 197.901C144.325 195.102 132.747 189.854 129.283 181.444C128.018 178.371 125.05 178.869 124.979 181.83C124.908 184.791 126.093 187.565 126.093 187.565C126.093 187.565 123.955 189.971 125.413 193.311C122.575 198.354 127.26 201.553 127.26 201.553C127.26 201.553 124.401 203.365 130.192 210.864C136.192 218.635 152.166 223.76 152.166 223.76L162.877 251.921L178.124 242.252L167.456 220.311Z" fill="#FDCCBF"/>
<path d="M154.874 197.706C154.982 197.445 155.281 197.32 155.543 197.428C155.804 197.535 155.929 197.834 155.821 198.096L155.735 198.318C155.699 198.415 155.655 198.534 155.606 198.674C155.442 199.143 155.277 199.67 155.123 200.239C154.632 202.059 154.364 203.889 154.433 205.583C154.52 207.717 155.142 209.457 156.391 210.69C156.593 210.889 156.595 211.213 156.396 211.414C156.198 211.615 155.874 211.617 155.672 211.419C154.216 209.982 153.507 207.998 153.41 205.625C153.336 203.813 153.619 201.885 154.135 199.973C154.296 199.378 154.468 198.828 154.64 198.335L154.815 197.855C154.839 197.795 154.858 197.746 154.874 197.706Z" fill="#604346"/>
<path d="M129.465 197.737C130.33 196.942 131.146 196.648 131.846 197.166C132.616 197.736 132.808 198.984 132.662 200.758C132.61 201.382 132.516 202.044 132.392 202.718C132.346 202.963 132.299 203.201 132.251 203.426L132.132 203.953L132.195 204.05C132.339 204.274 132.509 204.524 132.703 204.794C133.259 205.566 133.896 206.338 134.604 207.057C136.607 209.092 138.758 210.297 140.953 210.283C148.325 210.234 155.542 212.23 156.903 215.899C157.001 216.164 156.866 216.458 156.601 216.557C156.335 216.655 156.041 216.52 155.943 216.255C154.797 213.167 147.906 211.261 140.96 211.307C138.435 211.323 136.053 209.989 133.874 207.775C133.127 207.016 132.457 206.204 131.872 205.392C131.719 205.179 131.579 204.977 131.454 204.788L131.198 204.389C131.175 204.351 131.156 204.32 131.142 204.297C131.073 204.18 131.054 204.04 131.088 203.909L131.18 203.526C131.25 203.221 131.32 202.885 131.385 202.532C131.504 201.889 131.593 201.26 131.641 200.674C131.759 199.251 131.607 198.263 131.237 197.989C131.064 197.861 130.701 197.991 130.158 198.491C129.803 198.817 129.418 199.263 129.02 199.797C128.693 200.236 128.375 200.707 128.081 201.179L127.795 201.65C127.759 201.711 127.729 201.763 127.706 201.804C127.568 202.05 127.255 202.138 127.009 201.999C126.763 201.86 126.675 201.548 126.814 201.302L126.972 201.03C127.039 200.918 127.119 200.786 127.212 200.637C127.52 200.143 127.853 199.648 128.199 199.185C128.633 198.604 129.057 198.112 129.465 197.737Z" fill="#604346"/>
<path d="M127.891 189.481C129.043 188.527 130.13 188.354 130.839 189.403C131.418 190.259 131.468 191.462 131.134 192.923C130.971 193.641 130.718 194.399 130.401 195.173C130.249 195.543 130.089 195.9 129.928 196.238L129.645 196.806C129.572 196.948 129.513 197.057 129.473 197.128C129.334 197.374 129.022 197.462 128.775 197.323C128.529 197.184 128.442 196.872 128.58 196.626L128.737 196.332C128.771 196.266 128.809 196.192 128.85 196.11C129.056 195.7 129.262 195.252 129.453 194.785C129.751 194.059 129.986 193.353 130.136 192.696C130.413 191.484 130.374 190.542 129.991 189.976C129.722 189.579 129.296 189.647 128.544 190.27C128.15 190.596 127.723 191.045 127.281 191.586C126.924 192.021 126.578 192.49 126.257 192.959L125.981 193.373C125.926 193.458 125.882 193.527 125.85 193.58C125.702 193.82 125.387 193.895 125.146 193.747C124.905 193.599 124.83 193.283 124.978 193.043L125.12 192.819C125.179 192.728 125.249 192.623 125.329 192.504L125.412 192.382C125.748 191.89 126.111 191.398 126.488 190.937C126.969 190.35 127.439 189.855 127.891 189.481Z" fill="#604346"/>
<path d="M132.164 200.618C132.38 200.436 132.703 200.463 132.886 200.679C134.993 203.175 136.939 204.644 140.047 206.07C140.304 206.188 140.417 206.492 140.299 206.749C140.181 207.006 139.877 207.119 139.62 207.001C136.376 205.512 134.309 203.952 132.103 201.34C131.921 201.124 131.948 200.801 132.164 200.618Z" fill="#604346"/>
<path d="M130.344 195.691C130.528 195.476 130.851 195.451 131.066 195.635L131.299 195.828L131.388 195.901C131.655 196.116 131.965 196.356 132.312 196.615C133.307 197.355 134.406 198.096 135.577 198.787C137.372 199.847 139.171 200.69 140.917 201.236C141.187 201.321 141.337 201.608 141.252 201.878C141.168 202.148 140.881 202.298 140.611 202.213C138.782 201.641 136.915 200.766 135.056 199.669C133.852 198.958 132.723 198.197 131.701 197.436L131.193 197.05L130.746 196.698C130.579 196.563 130.462 196.466 130.399 196.413C130.185 196.229 130.16 195.905 130.344 195.691Z" fill="#604346"/>
<path d="M130.699 190.496C130.885 190.283 131.208 190.261 131.421 190.447L131.817 190.781L132.232 191.118C132.452 191.294 132.688 191.48 132.94 191.674C134.142 192.6 135.458 193.527 136.845 194.39C138.554 195.455 140.249 196.349 141.891 197.016C142.153 197.122 142.279 197.421 142.173 197.683C142.066 197.945 141.768 198.071 141.506 197.965C139.805 197.274 138.059 196.353 136.303 195.259C134.886 194.376 133.543 193.431 132.315 192.486L131.821 192.1C131.664 191.976 131.514 191.855 131.372 191.74L130.748 191.218C130.535 191.032 130.513 190.709 130.699 190.496Z" fill="#604346"/>
<path d="M143.356 195.135C143.623 195.23 143.762 195.522 143.667 195.789L143.552 196.121L143.327 196.796L143.245 197.048C142.927 198.034 142.609 199.094 142.312 200.187C141.971 201.441 141.681 202.658 141.457 203.806L141.332 204.478C140.829 207.335 140.823 209.474 141.409 210.55C141.544 210.798 141.452 211.109 141.204 211.245C140.956 211.38 140.645 211.288 140.51 211.04C139.724 209.596 139.783 207.035 140.452 203.609C140.681 202.435 140.977 201.195 141.324 199.918C141.625 198.809 141.948 197.734 142.27 196.734L142.583 195.791L142.702 195.445C142.797 195.179 143.09 195.04 143.356 195.135Z" fill="#604346"/>
<path d="M127.585 184.327C128.187 183.686 128.767 183.39 129.348 183.676C130.236 184.113 130.661 185.031 130.753 186.239C130.8 186.853 130.758 187.501 130.66 188.134L130.61 188.429C130.585 188.559 130.563 188.664 130.545 188.737C130.478 189.012 130.201 189.18 129.926 189.113C129.652 189.047 129.483 188.77 129.55 188.495L129.584 188.341C129.603 188.245 129.625 188.122 129.648 187.977C129.735 187.415 129.772 186.842 129.732 186.317C129.665 185.432 129.389 184.838 128.896 184.595C128.863 184.579 128.653 184.686 128.331 185.028C128.079 185.297 127.803 185.665 127.517 186.105C127.277 186.473 127.044 186.87 126.828 187.266L126.618 187.662C126.592 187.713 126.57 187.757 126.553 187.791C126.429 188.045 126.122 188.149 125.868 188.024C125.614 187.899 125.51 187.593 125.635 187.339L125.804 187.008C125.842 186.938 125.883 186.86 125.929 186.776C126.157 186.358 126.403 185.939 126.658 185.547C126.975 185.06 127.285 184.647 127.585 184.327Z" fill="#604346"/>
<path fill-rule="evenodd" clip-rule="evenodd" d="M352.002 327.577C361.602 325.129 367.531 315.509 365.403 305.833L347.485 224.344C344.92 212.666 333.19 205.438 321.604 208.393C310.021 211.348 303.187 223.31 306.525 234.79L329.824 314.907C332.59 324.419 342.403 330.026 352.002 327.577Z" fill="#ADC6FF"/>
<path fill-rule="evenodd" clip-rule="evenodd" d="M188.837 320.185C197.57 324.864 208.439 321.774 213.406 313.201L255.232 241.006C261.225 230.661 257.458 217.41 246.919 211.763C236.38 206.118 223.261 210.324 217.97 221.045L181.039 295.862C176.655 304.745 180.104 315.507 188.837 320.185Z" fill="#ADC6FF"/>
<path fill-rule="evenodd" clip-rule="evenodd" d="M168.074 213.875L143.771 226.387L178.318 314.165C182.784 323.608 194.239 327.5 203.511 322.726C212.784 317.952 216.143 306.434 210.898 297.393L168.074 213.875Z" fill="#ADC6FF"/>
<path d="M172.092 227.385C172.434 227.227 172.84 227.376 172.998 227.718C173.143 228.031 173.03 228.398 172.746 228.579L172.665 228.624L151.043 238.621C150.701 238.779 150.296 238.63 150.137 238.288C149.992 237.974 150.106 237.607 150.389 237.426L150.471 237.382L172.092 227.385Z" fill="#007AFF"/>
<path d="M167.619 213.824C167.928 213.657 168.307 213.752 168.503 214.031L168.551 214.112L202.309 279.726C202.481 280.062 202.349 280.473 202.014 280.646C201.707 280.804 201.336 280.706 201.143 280.431L201.095 280.351L167.656 215.355L145.287 227.474C144.983 227.639 144.61 227.549 144.411 227.278L144.362 227.199C144.197 226.895 144.287 226.522 144.558 226.323L144.637 226.274L167.619 213.824Z" fill="#007AFF"/>
<path fill-rule="evenodd" clip-rule="evenodd" d="M154.813 227.645C154.311 226.582 153.04 226.12 151.975 226.612C150.91 227.105 150.454 228.366 150.955 229.428C151.458 230.492 152.729 230.954 153.794 230.462C154.858 229.969 155.316 228.709 154.813 227.645Z" fill="white"/>
<path fill-rule="evenodd" clip-rule="evenodd" d="M294.534 196.131L289.746 165.881L256.793 167.897L258.644 198.825C258.76 206.169 263.392 212.845 270.395 215.059C271.124 215.29 271.872 215.489 272.644 215.648C284.263 218.052 296.063 207.898 294.534 196.131Z" fill="#FDCCBF"/>
<path fill-rule="evenodd" clip-rule="evenodd" d="M298.426 150.729C296.9 174.639 281.407 186.652 265.782 188.753C247.155 191.257 241.623 175.523 240.714 152.126C239.791 128.368 249.275 119.446 266.816 117.421C285.101 115.31 299.973 126.512 298.426 150.729Z" fill="#FDCCBF"/>
<path fill-rule="evenodd" clip-rule="evenodd" d="M285.793 155.288C286.185 153.399 286.447 150.265 289.299 148.782C293.225 146.74 297.211 151.037 297.058 156.032C296.873 162.086 291.893 166.169 288.9 166.45C289.572 171.283 290.963 175.048 290.963 175.048C290.963 175.048 296.467 168.296 299.259 157.848C303.614 141.548 298.134 119.733 279.934 116.203C251.57 111.532 243.955 131.786 243.955 131.786L277.4 129.711L277.52 141.282C277.52 141.282 283.68 141.089 283.616 154.8L285.793 155.288Z" fill="#604346"/>
<path d="M270.235 144.291C270.284 144.286 270.333 144.286 270.381 144.291L270.453 144.302L273.974 145.064C274.342 145.144 274.576 145.507 274.497 145.876C274.424 146.213 274.112 146.438 273.777 146.412L273.685 146.398L270.273 145.659L259.438 146.834C259.094 146.872 258.783 146.647 258.702 146.321L258.686 146.229C258.648 145.886 258.873 145.574 259.199 145.493L259.291 145.477L270.235 144.291Z" fill="#604346"/>
<path fill-rule="evenodd" clip-rule="evenodd" d="M276.314 174.812C271.891 169.581 272.643 165.414 257.429 165.753C247.565 165.973 246.965 169.439 244.688 176.023C247.71 185.583 256.215 191.034 266.716 189.294C288.774 185.637 287.836 163.333 287.836 163.333C287.836 163.333 284.777 164.407 283.911 166.161C281.521 171.012 277.933 172.859 276.314 174.812Z" fill="#7C5B4D"/>
<path fill-rule="evenodd" clip-rule="evenodd" d="M252.096 169.402C252.096 169.402 259.025 169.351 266.815 169.099C266.815 169.099 266.015 172.951 259.675 173.548C254.699 174.015 252.096 169.402 252.096 169.402Z" fill="white"/>
<path d="M266.797 168.587C264.347 168.667 261.85 168.731 259.376 168.781L256.328 168.836L252.091 168.89C251.701 168.893 251.457 169.314 251.649 169.653L251.739 169.804C251.829 169.948 251.957 170.138 252.123 170.361C252.507 170.876 252.964 171.39 253.495 171.871C255.215 173.428 257.298 174.285 259.722 174.058C262.402 173.805 264.363 172.975 265.702 171.738C266.706 170.81 267.177 169.866 267.315 169.203C267.382 168.878 267.128 168.576 266.797 168.587ZM264.363 169.685L266.055 169.633L266.085 169.577C265.847 170.054 265.496 170.534 265.007 170.986C263.839 172.066 262.089 172.806 259.626 173.038C257.518 173.236 255.705 172.49 254.182 171.112L253.903 170.848C253.631 170.581 253.384 170.306 253.16 170.028L253.064 169.904L254.681 169.885C255.39 169.875 256.141 169.864 256.929 169.85C259.384 169.809 261.885 169.754 264.363 169.685Z" fill="#604346"/>
<path d="M251.056 145.829C251.294 145.74 251.557 145.841 251.678 146.056L251.713 146.131L253.092 149.862C253.111 149.914 253.122 149.967 253.123 150.021L253.12 150.103L251.529 162.938C251.461 163.585 251.963 164.141 252.664 164.157L252.79 164.154L261.486 164.866C261.768 164.889 261.978 165.136 261.955 165.418C261.934 165.671 261.732 165.867 261.486 165.886H261.403L252.787 165.175C251.511 165.272 250.451 164.23 250.502 162.963L250.512 162.822L252.087 150.1L250.753 146.486C250.665 146.248 250.766 145.985 250.98 145.864L251.056 145.829Z" fill="#604346"/>
<path d="M262.253 177.093C262.535 177.073 262.78 177.285 262.8 177.567C262.818 177.821 262.648 178.045 262.408 178.102L262.325 178.114L258.203 178.408C257.921 178.428 257.676 178.216 257.656 177.934C257.638 177.68 257.808 177.456 258.048 177.399L258.13 177.387L262.253 177.093Z" fill="#604346"/>
<path d="M241.652 145.566L250.729 145.674C251.106 145.679 251.408 145.988 251.403 146.365C251.399 146.71 251.139 146.993 250.805 147.034L250.712 147.039L241.635 146.932C241.259 146.927 240.957 146.618 240.961 146.241C240.965 145.895 241.225 145.613 241.559 145.572L241.652 145.566Z" fill="#604346"/>
<path d="M278.478 184.224C278.71 184.063 279.029 184.122 279.19 184.354C279.351 184.587 279.293 184.906 279.06 185.066C272.563 189.557 265.769 190.706 259.979 190.003L259.555 189.947C259.422 189.928 259.299 189.908 259.185 189.888L258.895 189.833C258.618 189.773 258.444 189.5 258.504 189.224C258.565 188.947 258.838 188.773 259.114 188.833L259.373 188.883C259.555 188.914 259.8 188.95 260.102 188.987C265.664 189.662 272.213 188.555 278.478 184.224Z" fill="#604346"/>
<path d="M289.946 151.52C290.678 151.127 291.435 151.026 292.087 151.083L292.185 151.094C292.198 151.095 292.209 151.097 292.219 151.098C292.498 151.143 292.688 151.406 292.643 151.685C292.603 151.936 292.386 152.115 292.14 152.116L291.997 152.103C291.527 152.061 290.961 152.137 290.43 152.422C289.423 152.962 288.793 154.132 288.752 156.186L288.751 156.267L288.902 156.289C290.23 156.508 291.076 157.161 291.342 158.13L291.377 158.278C291.586 159.285 291.136 160.458 290.289 161.309C290.09 161.51 289.766 161.511 289.565 161.311C289.365 161.112 289.364 160.788 289.563 160.587C290.185 159.962 290.507 159.123 290.374 158.486C290.23 157.789 289.552 157.321 288.213 157.242C287.948 157.227 287.738 157.011 287.731 156.745C287.657 153.996 288.487 152.302 289.946 151.52Z" fill="#604346"/>
<path d="M246.083 150.538C247.887 150.369 249.409 152.247 249.633 154.618C249.668 154.993 249.393 155.326 249.017 155.362C248.642 155.397 248.309 155.122 248.274 154.746C248.112 153.037 247.12 151.812 246.211 151.897C245.299 151.983 244.553 153.37 244.713 155.08C244.748 155.455 244.472 155.788 244.097 155.823C243.722 155.858 243.389 155.583 243.354 155.207C243.132 152.836 244.277 150.708 246.083 150.538Z" fill="#604346"/>
<path d="M266.008 150.595C267.764 150.43 269.24 152.251 269.455 154.547C269.49 154.923 269.214 155.255 268.839 155.291C268.464 155.326 268.131 155.05 268.096 154.675C267.942 153.04 266.997 151.873 266.136 151.954C265.276 152.035 264.565 153.357 264.718 154.992C264.753 155.368 264.477 155.7 264.102 155.736C263.727 155.771 263.394 155.495 263.359 155.12C263.143 152.823 264.253 150.76 266.008 150.595Z" fill="#604346"/>
<path fill-rule="evenodd" clip-rule="evenodd" d="M243.462 317.821C243.462 317.821 223.094 229.104 224.717 213.391C235.636 205.69 240.602 205.821 259.959 200.751C263.534 199.815 269.001 206.763 273.321 206.089C279.708 205.092 284.563 197.174 290.72 197.566C314.65 199.088 336.559 211.511 336.559 211.511L327.773 316.391C327.773 316.391 336.609 337.204 314.314 337.349C299.324 337.446 269.242 340.615 248.581 336.622C242.808 335.507 241.556 325.182 243.462 317.821Z" fill="#ADC6FF"/>
<path fill-rule="evenodd" clip-rule="evenodd" d="M257.321 196.893L250.9 203.403L258.698 220.264L270.144 207.121L257.321 196.893Z" fill="#ADC6FF"/>
<path fill-rule="evenodd" clip-rule="evenodd" d="M270.525 206.35L293.061 192.586L299.302 198.475L286.753 219.313L270.525 206.35Z" fill="#ADC6FF"/>
<path fill-rule="evenodd" clip-rule="evenodd" d="M262.135 216.398L270.91 206.348L280.706 215.253L278.219 227.056L265.669 227.906L262.135 216.398Z" fill="#003166"/>
<path fill-rule="evenodd" clip-rule="evenodd" d="M278.753 225.996L265.671 226.067C265.671 226.067 260.09 274.279 259.438 291.964C259.355 294.222 274.968 315.695 274.968 315.695C274.968 315.695 291.451 292.016 290.94 289.452C286.968 269.491 282.953 243.38 278.753 225.996Z" fill="#003166"/>
<path d="M298.715 198.512C298.907 198.188 299.325 198.08 299.65 198.272C299.947 198.448 300.062 198.814 299.932 199.124L299.89 199.207L287.344 220.43C287.143 220.771 286.7 220.864 286.381 220.652L286.304 220.593L270.486 206.579L258.736 221.963C258.436 222.356 257.842 222.304 257.605 221.894L257.562 221.808L250.272 204.046C250.129 203.697 250.296 203.298 250.644 203.155C250.964 203.024 251.326 203.153 251.494 203.444L251.535 203.527L258.372 220.188L269.847 205.167C270.068 204.878 270.471 204.817 270.765 205.011L270.842 205.071L286.59 219.022L298.715 198.512Z" fill="#007AFF"/>
<path d="M228.259 246.909C228.628 246.833 228.99 247.07 229.066 247.439L229.52 249.632C229.999 251.938 230.488 254.281 230.986 256.66L232.327 263.026C234.357 272.628 236.47 282.455 238.599 292.223L241.476 305.347L244.125 317.287C244.153 317.409 244.146 317.537 244.106 317.655L244 317.996C243.976 318.074 243.951 318.163 243.923 318.262C243.781 318.76 243.64 319.323 243.508 319.938C242.973 322.426 242.75 324.967 243.012 327.321C243.493 331.637 245.524 334.662 249.559 335.968C249.917 336.084 250.114 336.469 249.998 336.827C249.882 337.186 249.497 337.383 249.138 337.267C244.54 335.778 242.191 332.28 241.655 327.472C241.374 324.952 241.61 322.271 242.173 319.651C242.284 319.135 242.401 318.653 242.52 318.212L242.653 317.738L242.752 317.405L240.142 305.641C239.675 303.523 239.189 301.311 238.686 299.015L237.265 292.513C234.663 280.572 232.083 268.542 229.65 256.94L228.184 249.909L227.729 247.716C227.653 247.347 227.89 246.986 228.259 246.909Z" fill="#007AFF"/>
<path fill-rule="evenodd" clip-rule="evenodd" d="M247.316 334.97L247.092 344.191C247.092 344.191 254.517 345.041 280.28 344.873C306.419 344.703 330.477 340.297 330.477 340.297L330.11 331.935C330.11 331.935 276.617 333.109 247.316 334.97Z" fill="black"/>
<path fill-rule="evenodd" clip-rule="evenodd" d="M259.414 343.553L259.13 336.856C259.05 334.97 260.514 333.416 262.32 333.482C266.652 333.639 274.301 333.786 279.83 333.168C281.637 332.967 283.211 334.45 283.235 336.349L283.322 343.196C283.341 344.798 282.242 346.163 280.731 346.43C277.141 347.065 270.208 347.865 262.09 346.627C260.61 346.402 259.481 345.113 259.414 343.553Z" fill="#E5E6EB"/>
<path fill-rule="evenodd" clip-rule="evenodd" d="M262.176 342.6L261.963 337.865C261.902 336.53 263.034 335.428 264.426 335.473C267.768 335.581 273.67 335.679 277.936 335.238C279.329 335.093 280.543 336.142 280.561 337.485L280.621 342.329C280.635 343.462 279.785 344.428 278.62 344.618C275.85 345.07 270.501 345.642 264.238 344.772C263.096 344.614 262.227 343.703 262.176 342.6Z" fill="black"/>
<path d="M312.761 247.53C313.121 247.417 313.504 247.616 313.617 247.976L313.837 248.697L314.277 250.186L314.737 251.786C315.257 253.619 315.839 255.733 316.48 258.139L316.971 259.998C319.683 270.32 322.797 283.281 326.264 299.075C326.345 299.443 326.112 299.807 325.744 299.888C325.376 299.969 325.012 299.736 324.931 299.368L324.036 295.316C321.003 281.693 318.257 270.306 315.828 261.02L315.002 257.898C314.373 255.548 313.803 253.488 313.295 251.709L312.871 250.241L312.315 248.386C312.202 248.026 312.401 247.643 312.761 247.53Z" fill="#007AFF"/>
<path fill-rule="evenodd" clip-rule="evenodd" d="M261.92 331.155L205.465 331.522C203.881 331.532 202.474 330.517 201.982 329.011L182.356 268.762C181.592 266.422 183.328 264.015 185.789 263.999L242.245 263.631C243.827 263.622 245.235 264.636 245.726 266.142L265.354 326.392C266.116 328.733 264.382 331.138 261.92 331.155Z" fill="#4E5C93"/>
<path fill-rule="evenodd" clip-rule="evenodd" d="M257.819 331.181L201.364 331.549C199.781 331.558 198.373 330.544 197.882 329.038L178.253 268.788C177.492 266.448 179.227 264.042 181.688 264.025L238.144 263.658C239.726 263.648 241.134 264.663 241.625 266.168L261.254 326.418C262.015 328.76 260.282 331.165 257.819 331.181Z" fill="#003166"/>
<path fill-rule="evenodd" clip-rule="evenodd" d="M216.792 335.683C216.792 335.683 237.368 336.742 242.046 328.223C246.282 320.509 237.214 313.854 237.214 313.854C237.214 313.854 229.528 309.462 219.946 306.997C213.666 305.382 202.203 300.527 200.485 303.525C198.245 307.435 210.791 310.479 211.259 313.708C212.207 320.25 191.945 317.542 188.408 318.868C181.497 321.46 192.102 334.6 216.792 335.683Z" fill="#FDCCBF"/>
<path d="M188.032 322.207C188.115 321.937 188.402 321.785 188.672 321.868C189.408 322.094 190.164 322.292 190.94 322.465C195.689 323.52 200.766 323.552 205.501 322.971C206.025 322.907 206.505 322.839 206.938 322.771L207.64 322.652C207.744 322.633 207.823 322.618 207.876 322.607C208.153 322.55 208.424 322.728 208.481 323.005C208.538 323.282 208.359 323.553 208.082 323.61L207.574 323.704L207.423 323.729C206.898 323.817 206.295 323.905 205.626 323.988C200.784 324.581 195.598 324.549 190.718 323.464C189.917 323.286 189.134 323.081 188.372 322.847C188.101 322.764 187.949 322.478 188.032 322.207Z" fill="#604346"/>
<path d="M190.209 326.803C190.304 326.537 190.597 326.398 190.863 326.493L191.087 326.567C191.246 326.617 191.462 326.682 191.733 326.757C192.463 326.961 193.321 327.164 194.303 327.355C198.804 328.228 204.144 328.524 210.162 327.901C210.443 327.871 210.695 328.076 210.724 328.357C210.753 328.638 210.549 328.89 210.268 328.919C204.145 329.554 198.705 329.251 194.108 328.36C193.099 328.164 192.214 327.954 191.458 327.744L191.086 327.637L190.766 327.539C190.646 327.501 190.564 327.473 190.52 327.457C190.254 327.362 190.115 327.07 190.209 326.803Z" fill="#604346"/>
<path d="M199.208 331.474C204.8 332.321 209.267 332.45 212.54 332.164L212.99 332.121C213.06 332.113 213.126 332.106 213.19 332.098L213.541 332.053C213.585 332.046 213.618 332.041 213.638 332.038C213.917 331.99 214.182 332.177 214.229 332.456C214.277 332.734 214.09 332.999 213.811 333.047L213.504 333.091L213.101 333.138C212.955 333.154 212.798 333.169 212.629 333.184L211.918 333.239C208.643 333.455 204.336 333.286 199.054 332.486C198.775 332.444 198.583 332.183 198.625 331.903C198.663 331.651 198.878 331.471 199.125 331.468L199.208 331.474Z" fill="#604346"/>
<path d="M200.003 303.354C200.097 303.088 200.39 302.949 200.656 303.043C200.923 303.137 201.062 303.43 200.968 303.697C200.745 304.325 200.746 304.679 200.965 305.028L201.09 305.213C201.198 305.399 201.038 305.322 201.715 305.805L204.513 307.761C204.931 308.052 205.334 308.305 205.969 308.677L206.993 309.268C209.207 310.536 210.171 311.204 210.882 312.146C211.88 313.468 211.79 314.935 210.479 316.545C209.065 318.281 205.498 319.15 200.361 319.424C197.654 319.569 194.762 319.532 191.987 319.383L191.079 319.33L190.21 319.268C190.12 319.261 190.051 319.256 190.003 319.252C189.721 319.227 189.513 318.979 189.537 318.697C189.562 318.416 189.81 318.207 190.091 318.232L190.612 318.272L191.145 318.308C191.425 318.326 191.725 318.344 192.042 318.361C194.784 318.508 197.641 318.545 200.306 318.402L201.078 318.355C205.504 318.052 208.59 317.243 209.685 315.898C210.709 314.641 210.767 313.694 210.065 312.763C209.522 312.044 208.722 311.459 207.001 310.455L205.441 309.555C204.907 309.242 204.529 309.009 204.168 308.765L201.758 307.098C201.69 307.05 201.634 307.01 201.594 306.98C200.905 306.48 200.489 306.114 200.206 305.731C199.701 305.047 199.655 304.336 200.003 303.354Z" fill="#604346"/>
<path fill-rule="evenodd" clip-rule="evenodd" d="M236.193 312.693L239.659 339.197L349.482 331.219C359.892 330.356 367.561 320.999 366.35 310.64C365.139 300.28 355.535 293.09 345.227 294.822L236.193 312.693Z" fill="#ADC6FF"/>
<path d="M252.321 309.888C252.665 309.85 252.977 310.074 253.058 310.401L253.074 310.492L255.662 334.172C255.703 334.547 255.433 334.884 255.058 334.925C254.715 334.962 254.403 334.738 254.322 334.412L254.305 334.32L251.717 310.64C251.676 310.266 251.947 309.929 252.321 309.888Z" fill="#007AFF"/>
<path d="M338.682 295.3C339.054 295.238 339.406 295.489 339.468 295.86C339.525 296.201 339.318 296.525 338.997 296.625L338.907 296.646L237.925 313.505L240.676 336.516C240.717 336.859 240.496 337.173 240.17 337.258L240.079 337.275C239.736 337.316 239.422 337.095 239.338 336.769L239.32 336.678L236.493 313.021C236.453 312.689 236.659 312.383 236.971 312.288L237.059 312.267L338.682 295.3Z" fill="#007AFF"/>
<path fill-rule="evenodd" clip-rule="evenodd" d="M246.508 329.259C245.341 329.397 244.497 330.454 244.624 331.62C244.752 332.787 245.801 333.621 246.969 333.483C248.137 333.347 248.98 332.289 248.853 331.123C248.725 329.956 247.675 329.121 246.508 329.259Z" fill="white"/>
<path d="M35.0291 179.91C34.7443 179.91 34.4828 179.753 34.3494 179.501C33.0225 177 32.6201 174.115 33.1551 170.926C33.6616 167.906 34.9871 164.74 37.0948 161.514C41.3785 154.958 48.4405 148.851 56.9794 144.317C65.5183 139.783 74.5329 137.356 82.3645 137.48C86.2166 137.541 89.5824 138.216 92.3675 139.489C95.3092 140.832 97.4731 142.781 98.8016 145.283C99.0004 145.658 98.8578 146.123 98.4831 146.321C98.1084 146.52 97.6435 146.378 97.4446 146.003C96.2787 143.808 94.3561 142.086 91.7298 140.886C89.138 139.703 85.979 139.074 82.3398 139.013C74.7645 138.891 66.0135 141.261 57.7002 145.671C49.3869 150.081 42.5249 156.012 38.3806 162.355C36.3898 165.402 35.1414 168.371 34.6701 171.181C34.1921 174.028 34.5413 176.585 35.7072 178.781C35.8332 179.018 35.826 179.304 35.6881 179.535C35.5502 179.766 35.3017 179.908 35.0328 179.91H35.0291Z" fill="#FF9072"/>
<path opacity="0.33" d="M65.3663 187.57C80.5299 187.57 92.8224 175.278 92.8224 160.114C92.8224 144.951 80.5299 132.658 65.3663 132.658C50.2027 132.658 37.9102 144.951 37.9102 160.114C37.9102 175.278 50.2027 187.57 65.3663 187.57Z" fill="#4E5C93"/>
<path d="M83.828 166.779C85.4449 162.466 86.2541 160.849 83.828 160.115C81.4018 159.381 77.8974 164.083 74.6604 161.815C71.4235 159.547 75.7387 154.649 74.3907 151.845C73.0427 149.041 71.425 148.718 72.2342 143.42C72.6449 140.732 75.1332 137.753 77.4852 135.473C73.7165 133.616 69.5705 132.653 65.3693 132.658C64.2719 132.658 63.1756 132.723 62.0859 132.853C64.363 137.843 60.2314 141.483 57.1406 146.532C53.3665 152.702 54.7144 156.536 62.5317 158.021C70.349 159.506 69.5406 168.936 62.5317 171.358C55.5229 173.781 57.6794 163.814 53.3665 163.766C49.0536 163.717 44.7407 162.736 44.4709 158.697C44.3211 156.406 41.3906 154.264 38.8843 152.839C38.2355 155.21 37.9079 157.657 37.9102 160.115C37.9102 175.278 50.203 187.571 65.367 187.571C72.3976 187.58 79.162 184.883 84.2573 180.039C82.3256 175.562 82.6426 169.94 83.828 166.779Z" fill="#007AFF"/>
<path d="M44.4714 158.697C44.7412 162.736 49.0541 163.717 53.367 163.766C57.6799 163.814 55.5234 173.788 62.5323 171.362C69.5411 168.936 70.3496 159.506 62.5323 158.025C54.7149 156.543 53.367 152.705 57.1411 146.536C60.229 141.486 64.3605 137.844 62.0864 132.857C50.9086 134.184 41.7935 142.228 38.8848 152.839C41.3926 154.264 44.3186 156.406 44.4714 158.697Z" fill="#4E5C93"/>
<path d="M44.4714 158.697C44.7412 162.736 49.0541 163.717 53.367 163.766C57.6799 163.814 55.5234 173.788 62.5323 171.362C69.5411 168.936 70.3496 159.506 62.5323 158.025C54.7149 156.543 53.367 152.705 57.1411 146.536C60.229 141.486 64.3605 137.844 62.0864 132.857C50.9086 134.184 41.7935 142.228 38.8848 152.839C41.3926 154.264 44.3186 156.406 44.4714 158.697Z" fill="#DADADA"/>
<path d="M92.8225 160.115C92.8225 149.302 86.5719 139.949 77.4875 135.472C75.1355 137.753 72.6472 140.732 72.2365 143.42C71.4273 148.718 73.045 149.04 74.393 151.845C75.741 154.65 71.4273 159.547 74.6605 161.815C77.8937 164.083 81.4041 159.381 83.828 160.115C86.252 160.849 85.445 162.466 83.828 166.779C82.6426 169.94 82.3257 175.562 84.2574 180.042C89.7338 174.862 92.8323 167.653 92.8225 160.115Z" fill="#7CB305"/>
<path d="M75.813 180.556C75.4598 180.557 75.1515 180.317 75.0659 179.974C74.9804 179.632 75.1396 179.275 75.4519 179.109C83.769 174.695 90.6264 168.769 94.7707 162.43C96.7653 159.383 98.0099 156.411 98.4812 153.603C98.9592 150.756 98.6108 148.198 97.4449 146.003C97.2461 145.628 97.3887 145.163 97.7634 144.964C98.1381 144.766 98.603 144.908 98.8019 145.283C100.13 147.784 100.532 150.669 100.001 153.858C99.4935 156.878 98.168 160.045 96.061 163.27C91.7773 169.826 84.7153 175.932 76.1757 180.466C76.0641 180.526 75.9395 180.557 75.813 180.556Z" fill="#FDCCBF"/>
<path d="M51.5109 190.807C54.8641 190.807 57.5824 188.089 57.5824 184.736C57.5824 181.383 54.8641 178.664 51.5109 178.664C48.1577 178.664 45.4395 181.383 45.4395 184.736C45.4395 188.089 48.1577 190.807 51.5109 190.807Z" fill="#FDCCBF"/>
<g clip-path="url(#clip0)">
<path d="M28.6526 107.951L18.2382 97.5362C17.933 97.231 17.4381 97.231 17.1329 97.5362L6.71853 107.951C6.4133 108.256 6.4133 108.751 6.71853 109.056L17.1329 119.47C17.4381 119.775 17.933 119.775 18.2382 119.47L28.6526 109.056C28.9578 108.751 28.9578 108.256 28.6526 107.951Z" fill="#C6D2E1"/>
</g>
<g clip-path="url(#clip1)">
<path d="M118.476 180.249L110.538 172.312C110.306 172.079 109.929 172.079 109.696 172.312L101.759 180.249C101.526 180.482 101.526 180.859 101.759 181.091L109.696 189.029C109.929 189.261 110.306 189.261 110.538 189.029L118.476 181.091C118.708 180.859 118.708 180.482 118.476 180.249Z" fill="#C6D2E1"/>
</g>
<path fill-rule="evenodd" clip-rule="evenodd" d="M133.604 99.9426C116.53 99.9426 102.689 113.783 102.689 130.857V130.936C102.689 148.009 116.53 161.85 133.604 161.85H179.193C180.896 161.85 182.567 161.712 184.195 161.447L193.028 169.979C193.268 170.211 193.589 170.34 193.923 170.34C194.634 170.34 195.211 169.764 195.211 169.052L195.211 157.382C204.141 151.961 210.107 142.145 210.107 130.936V130.857C210.107 113.783 196.267 99.9426 179.193 99.9426H133.604Z" fill="#003166" fill-opacity="0.62"/>
<path d="M141.104 25.877H76.009C51.6183 25.877 31.8457 45.6495 31.8457 70.0403C31.8457 94.431 51.6183 114.204 76.009 114.204H141.104C165.495 114.204 185.267 94.431 185.267 70.0403C185.267 45.6495 165.495 25.877 141.104 25.877Z" fill="#007AFF"/>
<path fill-rule="evenodd" clip-rule="evenodd" d="M53.1211 101.357V124.477C53.1211 125.493 53.945 126.317 54.9612 126.317C55.4379 126.317 55.8959 126.132 56.2389 125.801L73.2285 109.408L53.1211 101.357Z" fill="#007AFF"/>
<path d="M78.9997 75.5606C82.9378 75.5606 86.1302 72.3682 86.1302 68.4301C86.1302 64.492 82.9378 61.2996 78.9997 61.2996C75.0616 61.2996 71.8691 64.492 71.8691 68.4301C71.8691 72.3682 75.0616 75.5606 78.9997 75.5606Z" fill="white"/>
<path d="M108.211 75.5606C112.149 75.5606 115.341 72.3682 115.341 68.4301C115.341 64.492 112.149 61.2996 108.211 61.2996C104.273 61.2996 101.08 64.492 101.08 68.4301C101.08 72.3682 104.273 75.5606 108.211 75.5606Z" fill="white"/>
<path d="M138.113 75.5606C142.051 75.5606 145.243 72.3682 145.243 68.4301C145.243 64.492 142.051 61.2996 138.113 61.2996C134.175 61.2996 130.982 64.492 130.982 68.4301C130.982 72.3682 134.175 75.5606 138.113 75.5606Z" fill="white"/>
<defs>
<clipPath id="clip0">
<rect width="25.0109" height="25.0109" fill="white" transform="translate(17.6855 90.8005) rotate(45)"/>
</clipPath>
<clipPath id="clip1">
<rect width="19.062" height="19.062" fill="white" transform="translate(110.117 167.178) rotate(45)"/>
</clipPath>
</defs>
</svg>
