<svg width="408" height="409" viewBox="0 0 408 409" fill="none" xmlns="http://www.w3.org/2000/svg">
<rect x="0.415039" y="0.5" width="407.52" height="407.52" fill="#007AFF"/>
<path d="M78.0737 244.562C69.9152 244.562 62.565 242.874 56.0237 239.497C49.4819 236.047 44.3372 231.275 40.5887 225.182C36.9134 219.016 35.0762 212.042 35.0762 204.26C35.0762 196.479 36.9134 189.542 40.5887 183.448C44.3372 177.282 49.4819 172.51 56.0237 169.133C62.565 165.683 69.9152 163.958 78.0737 163.958C85.5707 163.958 92.2589 165.279 98.1392 167.922C104.019 170.565 108.87 174.382 112.692 179.374L96.2649 194.02C91.4872 188 85.8644 184.99 79.3967 184.99C73.9574 184.99 69.5844 186.752 66.2769 190.276C62.9694 193.726 61.3157 198.388 61.3157 204.26C61.3157 210.133 62.9694 214.831 66.2769 218.355C69.5844 221.806 73.9574 223.53 79.3967 223.53C85.8644 223.53 91.4872 220.521 96.2649 214.501L112.692 229.146C108.87 234.138 104.019 237.956 98.1392 240.598C92.2589 243.241 85.5707 244.562 78.0737 244.562ZM179.868 202.388C184.204 203.93 187.512 206.242 189.79 209.326C192.069 212.336 193.208 216.043 193.208 220.447C193.208 227.348 190.452 232.817 184.939 236.854C179.501 240.819 171.783 242.801 161.787 242.801H120.553V165.72H159.692C169.247 165.72 176.634 167.482 181.852 171.005C187.144 174.529 189.79 179.484 189.79 185.871C189.79 189.542 188.908 192.772 187.144 195.561C185.454 198.351 183.029 200.626 179.868 202.388ZM146.131 195.341H157.156C161.42 195.341 163.551 193.469 163.551 189.725C163.551 185.834 161.42 183.889 157.156 183.889H146.131V195.341ZM160.574 224.632C164.837 224.632 166.969 222.576 166.969 218.465C166.969 214.501 164.837 212.519 160.574 212.519H146.131V224.632H160.574ZM241.736 244.562C233.431 244.562 225.971 242.838 219.356 239.387C212.741 235.937 207.559 231.165 203.81 225.072C200.062 218.906 198.188 211.968 198.188 204.26C198.188 196.552 200.062 189.652 203.81 183.559C207.559 177.392 212.741 172.584 219.356 169.133C225.971 165.683 233.431 163.958 241.736 163.958C250.042 163.958 257.502 165.683 264.117 169.133C270.732 172.584 275.914 177.392 279.662 183.559C283.411 189.652 285.285 196.552 285.285 204.26C285.285 211.968 283.411 218.906 279.662 225.072C275.914 231.165 270.732 235.937 264.117 239.387C257.502 242.838 250.042 244.562 241.736 244.562ZM241.736 223.53C244.97 223.53 247.874 222.76 250.446 221.218C253.092 219.603 255.187 217.364 256.73 214.501C258.274 211.565 259.046 208.151 259.046 204.26C259.046 200.37 258.274 196.993 256.73 194.13C255.187 191.193 253.092 188.954 250.446 187.413C247.874 185.798 244.97 184.99 241.736 184.99C238.502 184.99 235.562 185.798 232.916 187.413C230.344 188.954 228.286 191.193 226.742 194.13C225.199 196.993 224.427 200.37 224.427 204.26C224.427 208.151 225.199 211.565 226.742 214.501C228.286 217.364 230.344 219.603 232.916 221.218C235.562 222.76 238.502 223.53 241.736 223.53ZM294.649 165.72H320.227V205.802L346.797 165.72H371.273V242.801H345.695V202.829L319.235 242.801H294.649V165.72Z" fill="#F8F9FC"/>
</svg>
