<svg width="34" height="34" viewBox="0 0 68 69" fill="none" xmlns="http://www.w3.org/2000/svg">
<g id="icon/maps/place_24px">
<path id="icon/maps/place_24px_2" fill-rule="evenodd" clip-rule="evenodd" d="M14.168 26.8741C14.168 15.9091 23.0363 7.04077 34.0013 7.04077C44.9663 7.04077 53.8346 15.9091 53.8346 26.8741C53.8346 38.6891 41.3113 54.9808 36.183 61.1858C35.0496 62.5458 32.9813 62.5458 31.848 61.1858C26.6913 54.9808 14.168 38.6891 14.168 26.8741ZM26.918 26.8741C26.918 30.7841 30.0913 33.9574 34.0013 33.9574C37.9113 33.9574 41.0846 30.7841 41.0846 26.8741C41.0846 22.9641 37.9113 19.7908 34.0013 19.7908C30.0913 19.7908 26.918 22.9641 26.918 26.8741Z" fill="#4caf50"/>
</g>
</svg>
