<svg width="123" height="31" viewBox="0 0 123 31" fill="none" xmlns="http://www.w3.org/2000/svg">
<path d="M16.3198 30.1407C13.3598 30.1407 10.6931 29.5274 8.31977 28.3007C5.94643 27.0474 4.07977 25.3141 2.71977 23.1007C1.38643 20.8607 0.719766 18.3274 0.719766 15.5007C0.719766 12.6741 1.38643 10.1541 2.71977 7.94073C4.07977 5.70073 5.94643 3.9674 8.31977 2.74073C10.6931 1.4874 13.3598 0.860732 16.3198 0.860732C19.0398 0.860732 21.4664 1.34073 23.5998 2.30073C25.7331 3.26073 27.4931 4.6474 28.8798 6.46073L22.9198 11.7807C21.1864 9.59406 19.1464 8.50073 16.7998 8.50073C14.8264 8.50073 13.2398 9.14073 12.0398 10.4207C10.8398 11.6741 10.2398 13.3674 10.2398 15.5007C10.2398 17.6341 10.8398 19.3407 12.0398 20.6207C13.2398 21.8741 14.8264 22.5007 16.7998 22.5007C19.1464 22.5007 21.1864 21.4074 22.9198 19.2207L28.8798 24.5407C27.4931 26.3541 25.7331 27.7407 23.5998 28.7007C21.4664 29.6607 19.0398 30.1407 16.3198 30.1407ZM53.252 14.8207C54.8253 15.3807 56.0253 16.2207 56.852 17.3407C57.6786 18.4341 58.092 19.7807 58.092 21.3807C58.092 23.8874 57.092 25.8741 55.092 27.3407C53.1186 28.7807 50.3186 29.5007 46.692 29.5007H31.732V1.50073H45.932C49.3986 1.50073 52.0786 2.14073 53.972 3.42073C55.892 4.70073 56.852 6.50073 56.852 8.82073C56.852 10.1541 56.532 11.3274 55.892 12.3407C55.2786 13.3541 54.3986 14.1807 53.252 14.8207ZM41.012 12.2607H45.012C46.5586 12.2607 47.332 11.5807 47.332 10.2207C47.332 8.8074 46.5586 8.10073 45.012 8.10073H41.012V12.2607ZM46.252 22.9007C47.7986 22.9007 48.572 22.1541 48.572 20.6607C48.572 19.2207 47.7986 18.5007 46.252 18.5007H41.012V22.9007H46.252ZM75.6985 30.1407C72.6852 30.1407 69.9785 29.5141 67.5785 28.2607C65.1785 27.0074 63.2985 25.2741 61.9385 23.0607C60.5785 20.8207 59.8985 18.3007 59.8985 15.5007C59.8985 12.7007 60.5785 10.1941 61.9385 7.98073C63.2985 5.74073 65.1785 3.99406 67.5785 2.74073C69.9785 1.4874 72.6852 0.860732 75.6985 0.860732C78.7118 0.860732 81.4185 1.4874 83.8185 2.74073C86.2185 3.99406 88.0985 5.74073 89.4585 7.98073C90.8185 10.1941 91.4985 12.7007 91.4985 15.5007C91.4985 18.3007 90.8185 20.8207 89.4585 23.0607C88.0985 25.2741 86.2185 27.0074 83.8185 28.2607C81.4185 29.5141 78.7118 30.1407 75.6985 30.1407ZM75.6985 22.5007C76.8718 22.5007 77.9252 22.2207 78.8585 21.6607C79.8185 21.0741 80.5785 20.2607 81.1385 19.2207C81.6985 18.1541 81.9785 16.9141 81.9785 15.5007C81.9785 14.0874 81.6985 12.8607 81.1385 11.8207C80.5785 10.7541 79.8185 9.94073 78.8585 9.38073C77.9252 8.79406 76.8718 8.50073 75.6985 8.50073C74.5252 8.50073 73.4585 8.79406 72.4985 9.38073C71.5652 9.94073 70.8185 10.7541 70.2585 11.8207C69.6985 12.8607 69.4185 14.0874 69.4185 15.5007C69.4185 16.9141 69.6985 18.1541 70.2585 19.2207C70.8185 20.2607 71.5652 21.0741 72.4985 21.6607C73.4585 22.2207 74.5252 22.5007 75.6985 22.5007ZM94.896 1.50073H104.176V16.0607L113.816 1.50073H122.696V29.5007H113.416V14.9807L103.816 29.5007H94.896V1.50073Z" fill="#007AFF"/>
</svg>
