<svg width="306" height="285" viewBox="0 0 306 285" fill="none" xmlns="http://www.w3.org/2000/svg">
<path opacity="0.1" fill-rule="evenodd" clip-rule="evenodd" d="M302.543 22.3781C302.543 10.4982 292.808 0.865845 280.855 0.865845H176.745C164.739 0.865845 155.004 10.4982 155.004 22.3781V186.502C155.004 198.382 164.739 208.015 176.745 208.015H280.855C292.862 208.015 302.543 198.382 302.543 186.502V22.3781Z" fill="#007AFF"/>
<path d="M173.715 26.1777L178.096 30.3517L186.532 21.6826" stroke="#007AFF" stroke-width="7.1997" stroke-miterlimit="10" stroke-linejoin="round"/>
<path fill-rule="evenodd" clip-rule="evenodd" d="M282.8 23.8766C282.8 22.6994 281.827 21.6826 280.583 21.6826H199.674C198.485 21.6826 197.457 22.6458 197.457 23.8766C197.457 25.0539 198.431 26.0707 199.674 26.0707H280.583C281.827 26.0172 282.8 25.0539 282.8 23.8766Z" fill="white"/>
<path fill-rule="evenodd" clip-rule="evenodd" d="M254.839 30.3517C254.839 29.1744 253.866 28.1577 252.622 28.1577H199.674C198.485 28.1577 197.457 29.1209 197.457 30.3517C197.457 31.5825 198.431 32.5457 199.674 32.5457H252.622C253.866 32.5457 254.839 31.5825 254.839 30.3517Z" fill="white"/>
<path d="M173.715 55.5025L178.096 59.6765L186.532 51.0074" stroke="#007AFF" stroke-width="7.1997" stroke-miterlimit="10" stroke-linejoin="round"/>
<path fill-rule="evenodd" clip-rule="evenodd" d="M282.8 53.1481C282.8 51.9708 281.827 50.954 280.583 50.954H199.674C198.485 50.954 197.457 51.9173 197.457 53.1481C197.457 54.3254 198.431 55.3421 199.674 55.3421H280.583C281.827 55.3421 282.8 54.3789 282.8 53.1481Z" fill="white"/>
<path fill-rule="evenodd" clip-rule="evenodd" d="M254.839 59.6765C254.839 58.4992 253.866 57.4824 252.622 57.4824H199.674C198.485 57.4824 197.457 58.4457 197.457 59.6765C197.457 60.8537 198.431 61.8705 199.674 61.8705H252.622C253.866 61.8705 254.839 60.9072 254.839 59.6765Z" fill="white"/>
<path fill-rule="evenodd" clip-rule="evenodd" d="M282.8 82.4196C282.8 81.2423 281.827 80.2256 280.583 80.2256H199.674C198.485 80.2256 197.457 81.1888 197.457 82.4196C197.457 83.5969 198.431 84.6136 199.674 84.6136H280.583C281.827 84.5601 282.8 83.5969 282.8 82.4196Z" fill="white"/>
<path opacity="0.5" fill-rule="evenodd" clip-rule="evenodd" d="M181.124 78.62C185.018 78.62 188.209 81.7773 188.209 85.6302C188.209 89.4831 185.018 92.6404 181.124 92.6404C177.23 92.6404 174.039 89.4831 174.039 85.6302C174.039 81.7773 177.176 78.62 181.124 78.62ZM181.124 79.6367C184.477 79.6367 187.181 82.3124 187.181 85.6302C187.181 88.948 184.477 91.6236 181.124 91.6236C177.771 91.6236 175.067 88.948 175.067 85.6302C175.013 82.3124 177.771 79.6367 181.124 79.6367Z" fill="#007AFF"/>
<path fill-rule="evenodd" clip-rule="evenodd" d="M254.839 88.8946C254.839 87.7173 253.866 86.7006 252.622 86.7006H199.674C198.485 86.7006 197.457 87.6638 197.457 88.8946C197.457 90.1254 198.431 91.0887 199.674 91.0887H252.622C253.866 91.0887 254.839 90.1254 254.839 88.8946Z" fill="white"/>
<path fill-rule="evenodd" clip-rule="evenodd" d="M282.8 111.584C282.8 110.407 281.827 109.39 280.583 109.39H199.674C198.485 109.39 197.457 110.353 197.457 111.584C197.457 112.762 198.431 113.778 199.674 113.778H280.583C281.827 113.778 282.8 112.815 282.8 111.584Z" fill="white"/>
<path fill-rule="evenodd" clip-rule="evenodd" d="M254.839 118.113C254.839 116.936 253.866 115.919 252.622 115.919H199.674C198.485 115.919 197.457 116.882 197.457 118.113C197.457 119.29 198.431 120.307 199.674 120.307H252.622C253.866 120.307 254.839 119.344 254.839 118.113Z" fill="white"/>
<path fill-rule="evenodd" clip-rule="evenodd" d="M181.124 107.357C185.018 107.357 188.209 110.514 188.209 114.367C188.209 118.22 185.018 121.377 181.124 121.377C177.23 121.377 174.039 118.22 174.039 114.367C174.039 110.46 177.176 107.357 181.124 107.357ZM181.124 108.32C184.477 108.32 187.181 110.995 187.181 114.313C187.181 117.631 184.477 120.307 181.124 120.307C177.771 120.307 175.067 117.631 175.067 114.313C175.013 110.995 177.771 108.32 181.124 108.32Z" fill="#007AFF"/>
<path fill-rule="evenodd" clip-rule="evenodd" d="M282.638 143.585C282.638 142.407 281.665 141.391 280.421 141.391H199.512C198.323 141.391 197.295 142.354 197.295 143.585C197.295 144.762 198.268 145.779 199.512 145.779H280.421C281.665 145.779 282.638 144.762 282.638 143.585Z" fill="white"/>
<path fill-rule="evenodd" clip-rule="evenodd" d="M254.677 150.113C254.677 148.936 253.704 147.919 252.46 147.919H199.512C198.323 147.919 197.295 148.883 197.295 150.113C197.295 151.344 198.268 152.307 199.512 152.307H252.46C253.704 152.254 254.677 151.291 254.677 150.113Z" fill="white"/>
<path fill-rule="evenodd" clip-rule="evenodd" d="M180.909 139.304C184.803 139.304 187.994 142.461 187.994 146.314C187.994 150.167 184.803 153.325 180.909 153.325C177.015 153.325 173.824 150.167 173.824 146.314C173.878 142.461 177.015 139.304 180.909 139.304ZM180.909 140.321C184.262 140.321 186.966 142.997 186.966 146.314C186.966 149.632 184.262 152.308 180.909 152.308C177.556 152.308 174.852 149.632 174.852 146.314C174.852 142.997 177.556 140.321 180.909 140.321Z" fill="#007AFF"/>
<g filter="url(#filter0_d)">
<path fill-rule="evenodd" clip-rule="evenodd" d="M228.827 176.602C243.754 176.602 255.868 188.589 255.868 203.359C255.868 218.128 243.754 230.115 228.827 230.115C213.9 230.115 201.785 218.128 201.785 203.359C201.785 188.589 213.9 176.602 228.827 176.602Z" fill="#007AFF"/>
</g>
<path fill-rule="evenodd" clip-rule="evenodd" d="M181.125 80.9205C183.775 80.9205 185.884 83.061 185.884 85.6296C185.884 88.1982 183.721 90.3387 181.125 90.3387C178.529 90.3387 176.365 88.1982 176.365 85.6296C176.365 83.061 178.474 80.9205 181.125 80.9205Z" fill="#007AFF"/>
<path fill-rule="evenodd" clip-rule="evenodd" d="M107.194 59.3021L94.3223 71.0215L109.52 75.0349L113.63 63.2621L107.194 59.3021Z" fill="#F5F8FC" stroke="#003166" stroke-width="0.5" stroke-miterlimit="10" stroke-linecap="round" stroke-linejoin="round"/>
<path fill-rule="evenodd" clip-rule="evenodd" d="M121.958 59.248L123.094 64.3317L120.119 64.8134L121.958 59.248Z" fill="#F5F8FC" stroke="#003166" stroke-width="0.5" stroke-miterlimit="10" stroke-linecap="round" stroke-linejoin="round"/>
<path fill-rule="evenodd" clip-rule="evenodd" d="M115.523 48.2778C119.309 48.2778 122.391 52.7729 122.391 58.3383C122.391 63.9036 119.309 68.3987 115.523 68.3987C111.737 68.3987 108.654 63.9036 108.654 58.3383C108.654 52.7729 111.737 48.2778 115.523 48.2778Z" fill="#F5F8FC" stroke="#003166" stroke-width="0.5" stroke-miterlimit="10" stroke-linecap="round" stroke-linejoin="round"/>
<path fill-rule="evenodd" clip-rule="evenodd" d="M129.8 47.5824C130.557 52.131 127.853 56.3051 123.851 56.9472C119.849 57.5894 115.955 54.4321 115.198 49.8835C114.44 45.3349 117.145 41.1609 121.147 40.5187C125.203 39.9301 129.043 43.0873 129.8 47.5824Z" fill="black"/>
<path fill-rule="evenodd" clip-rule="evenodd" d="M120.333 59.7832C120.333 60.5324 120.009 61.1746 119.684 61.1746C119.306 61.1746 119.035 60.5324 119.035 59.7832C119.035 59.0341 119.36 58.3919 119.684 58.3919C120.063 58.3919 120.333 59.0341 120.333 59.7832Z" fill="black"/>
<path fill-rule="evenodd" clip-rule="evenodd" d="M107.409 46.084C110.546 45.2813 113.574 46.6191 114.223 49.0807C114.872 51.5423 112.871 54.2179 109.789 55.0206C106.652 55.8233 103.623 54.4855 102.974 52.0239C102.325 49.5623 104.272 46.8867 107.409 46.084Z" fill="black"/>
<path fill-rule="evenodd" clip-rule="evenodd" d="M114.548 45.2276C117.901 44.746 120.984 46.9935 121.471 50.2043C121.957 53.4151 119.632 56.4653 116.333 56.947C112.98 57.4286 109.897 55.181 109.41 51.9703C108.923 48.7595 111.249 45.7092 114.548 45.2276Z" fill="black"/>
<path fill-rule="evenodd" clip-rule="evenodd" d="M112.924 43.8902C114.546 43.5156 116.439 45.3886 117.088 48.0642C117.737 50.7399 116.926 53.255 115.304 53.6296C113.681 54.0042 111.788 52.1312 111.139 49.4556C110.49 46.7799 111.247 44.2648 112.924 43.8902Z" fill="black"/>
<path fill-rule="evenodd" clip-rule="evenodd" d="M112.6 50.954C114.656 52.3453 114.98 55.5026 113.249 57.9642C111.519 60.4258 108.49 61.282 106.381 59.8907C104.326 58.4994 104.001 55.3421 105.732 52.8805C107.463 50.4189 110.545 49.5627 112.6 50.954Z" fill="black"/>
<path fill-rule="evenodd" clip-rule="evenodd" d="M109.734 62.8872C108.058 62.8872 106.76 61.2818 106.76 59.2483C106.76 57.2148 108.112 55.6094 109.734 55.6094C111.411 55.6094 112.709 56.8938 112.709 58.8737" fill="#F5F8FC"/>
<path d="M109.734 62.8872C108.058 62.8872 106.76 61.2818 106.76 59.2483C106.76 57.2148 108.112 55.6094 109.734 55.6094C111.411 55.6094 112.709 56.8938 112.709 58.8737" stroke="#003166" stroke-width="0.5" stroke-miterlimit="10" stroke-linecap="round" stroke-linejoin="round"/>
<path fill-rule="evenodd" clip-rule="evenodd" d="M165.007 90.179C164.628 90.072 176.364 86.6472 178.582 84.2926C180.799 81.938 182.638 86.8612 178.636 90.3396C174.255 94.139 167.17 93.8714 167.17 93.8714" fill="#F5F8FC"/>
<path d="M165.007 90.179C164.628 90.072 176.364 86.6472 178.582 84.2926C180.799 81.938 182.638 86.8612 178.636 90.3396C174.255 94.139 167.17 93.8714 167.17 93.8714" stroke="#003166" stroke-width="0.5" stroke-miterlimit="10" stroke-linecap="round" stroke-linejoin="round"/>
<path fill-rule="evenodd" clip-rule="evenodd" d="M32.9909 232.898L0.541016 276.939L49.5403 278.009L44.6728 271.481L49.1617 251.734L32.9909 232.898Z" fill="#F5F8FC" stroke="#003166" stroke-width="0.5" stroke-miterlimit="10" stroke-linecap="round" stroke-linejoin="round"/>
<path fill-rule="evenodd" clip-rule="evenodd" d="M123.309 246.704L121.795 278.866L169.118 278.598L161.33 270.785L152.081 241.192L123.309 246.704Z" fill="#F5F8FC" stroke="#003166" stroke-width="0.5" stroke-miterlimit="10" stroke-linecap="round" stroke-linejoin="round"/>
<path fill-rule="evenodd" clip-rule="evenodd" d="M68.8463 97.5098C68.8463 97.5098 53.4867 118.059 56.299 155.518C57.2184 167.451 64.4655 167.986 67.2779 169.966C70.0361 171.893 88.4784 109.336 88.4784 109.336C88.4784 109.336 68.6299 98.1519 68.8463 97.5098Z" fill="#F5F8FC" stroke="#003166" stroke-width="0.5" stroke-miterlimit="10" stroke-linecap="round" stroke-linejoin="round"/>
<path fill-rule="evenodd" clip-rule="evenodd" d="M108.167 91.0883C115.414 84.3992 106.058 63.208 90.3738 72.5728C76.5285 80.8138 66.1445 99.5433 66.1445 99.5433C66.1445 99.5433 82.4776 107.303 88.2104 105.376C96.0525 102.701 99.8383 98.7406 108.167 91.0883Z" fill="#F5F8FC" stroke="#003166" stroke-width="0.5" stroke-miterlimit="10" stroke-linecap="round" stroke-linejoin="round"/>
<path fill-rule="evenodd" clip-rule="evenodd" d="M81.4484 124.48C81.4484 124.48 78.4198 142.782 94.6447 183.719C110.816 224.657 117.955 259.173 117.955 259.173L160.788 255.32C160.788 255.32 147.971 186.288 126.608 143.103C114.98 119.611 112.871 111.316 112.871 111.316L81.4484 124.48Z" fill="#F5F8FC" stroke="#003166" stroke-width="0.5" stroke-miterlimit="10" stroke-linecap="round" stroke-linejoin="round"/>
<path fill-rule="evenodd" clip-rule="evenodd" d="M79.3406 126.033C79.3406 126.033 85.1815 143.317 62.1962 174.462C39.2109 205.606 14.3867 245.259 14.3867 245.259L54.1378 260.992C54.1378 260.992 96.3767 231.4 106.49 193.78C116.604 156.16 113.954 118.059 113.954 118.059L79.3406 126.033Z" fill="#F5F8FC" stroke="#003166" stroke-width="0.5" stroke-miterlimit="10" stroke-linecap="round" stroke-linejoin="round"/>
<path fill-rule="evenodd" clip-rule="evenodd" d="M94.5937 68.1849C94.5937 68.1849 68.0389 90.7139 75.2319 129.457L129.856 134.22C129.856 134.22 115.957 86.2188 112.495 74.6065L94.5937 68.1849Z" fill="#F5F8FC" stroke="#003166" stroke-width="0.5" stroke-miterlimit="10" stroke-linecap="round" stroke-linejoin="round"/>
<path fill-rule="evenodd" clip-rule="evenodd" d="M101.892 74.7672C92.0486 73.3758 85.829 85.9514 97.4028 100.025C108.977 114.099 122.227 122.126 133.314 123.41C142.887 124.534 160.356 110.139 171.821 104.039C176.526 101.524 168.089 105.163 172.524 106.928C173.876 107.464 178.041 105.912 178.257 102.059C178.473 98.6875 175.445 93.2827 167.44 90.0719C159.923 87.0752 139.425 99.8648 134.287 96.654C130.339 94.1924 124.228 88.1989 117.63 83.0617C112.384 78.9947 106.867 75.4628 101.892 74.7672Z" fill="#F5F8FC" stroke="#003166" stroke-width="0.5" stroke-miterlimit="10" stroke-linecap="round" stroke-linejoin="round"/>
<path fill-rule="evenodd" clip-rule="evenodd" d="M101.567 74.285C91.6699 74.5526 82.2054 81.6698 90.4801 97.8307C95.3476 107.41 106.272 113.938 106.272 113.938L122.66 85.3087C122.66 85.3622 109.842 74.0709 101.567 74.285Z" fill="#F5F8FC" stroke="#003166" stroke-width="0.5" stroke-miterlimit="10" stroke-linecap="round" stroke-linejoin="round"/>
<path fill-rule="evenodd" clip-rule="evenodd" d="M228.827 176.602C243.754 176.602 255.868 188.588 255.868 203.358C255.868 218.128 243.754 230.115 228.827 230.115C213.9 230.115 201.785 218.128 201.785 203.358C201.785 188.588 213.9 176.602 228.827 176.602ZM228.827 177.618C243.213 177.618 254.895 189.177 254.895 203.412C254.895 217.646 243.213 229.205 228.827 229.205C214.441 229.205 202.759 217.646 202.759 203.412C202.759 189.177 214.441 177.618 228.827 177.618Z" fill="#007AFF"/>
<path fill-rule="evenodd" clip-rule="evenodd" d="M244.888 203.359C244.888 202.075 243.86 201.058 242.562 201.058H214.98C213.682 201.058 212.654 202.075 212.654 203.359C212.654 204.644 213.682 205.66 214.98 205.66H242.562C243.86 205.66 244.888 204.644 244.888 203.359Z" fill="white"/>
<path fill-rule="evenodd" clip-rule="evenodd" d="M228.826 218.503C230.178 218.503 231.26 217.432 231.26 216.095V190.676C231.26 189.338 230.178 188.268 228.826 188.268C227.474 188.268 226.393 189.338 226.393 190.676V216.095C226.393 217.432 227.474 218.503 228.826 218.503Z" fill="white"/>
<defs>
<filter id="filter0_d" x="151.785" y="130.602" width="154.083" height="153.513" filterUnits="userSpaceOnUse" color-interpolation-filters="sRGB">
<feFlood flood-opacity="0" result="BackgroundImageFix"/>
<feColorMatrix in="SourceAlpha" type="matrix" values="0 0 0 0 0 0 0 0 0 0 0 0 0 0 0 0 0 0 127 0"/>
<feOffset dy="4"/>
<feGaussianBlur stdDeviation="25"/>
<feColorMatrix type="matrix" values="0 0 0 0 0.0171875 0 0 0 0 0.359565 0 0 0 0 0.732813 0 0 0 0.51 0"/>
<feBlend mode="normal" in2="BackgroundImageFix" result="effect1_dropShadow"/>
<feBlend mode="normal" in="SourceGraphic" in2="effect1_dropShadow" result="shape"/>
</filter>
</defs>
</svg>
