<svg width="24" height="24" viewBox="0 0 24 24" fill="none" xmlns="http://www.w3.org/2000/svg">
<path fill-rule="evenodd" clip-rule="evenodd" d="M13 8.00067C13 8.55267 12.552 9.00067 12 9.00067C11.448 9.00067 11 8.55267 11 8.00067C11 7.44867 11.448 7.00067 12 7.00067C12.552 7.00067 13 7.44867 13 8.00067ZM10.5 15.5007C10.5 14.6737 11.173 14.0007 12 14.0007C12.827 14.0007 13.5 14.6737 13.5 15.5007C13.5 16.3277 12.827 17.0007 12 17.0007C11.173 17.0007 10.5 16.3277 10.5 15.5007ZM12 19.0007C10.07 19.0007 8.5 17.4307 8.5 15.5007C8.5 13.5707 10.07 12.0007 12 12.0007C13.93 12.0007 15.5 13.5707 15.5 15.5007C15.5 17.4307 13.93 19.0007 12 19.0007ZM12 5.00067C13.654 5.00067 15 6.34667 15 8.00067C15 9.65467 13.654 11.0007 12 11.0007C10.346 11.0007 9 9.65467 9 8.00067C9 6.34667 10.346 5.00067 12 5.00067ZM17 2.00067H7C5.346 2.00067 4 3.34667 4 5.00067V19.0007C4 20.6547 5.346 22.0007 7 22.0007H17C18.654 22.0007 20 20.6547 20 19.0007V5.00067C20 3.34667 18.654 2.00067 17 2.00067Z" fill="#1684F2"/>
<mask id="mask0" mask-type="alpha" maskUnits="userSpaceOnUse" x="4" y="2" width="16" height="21">
<path fill-rule="evenodd" clip-rule="evenodd" d="M13 8.00067C13 8.55267 12.552 9.00067 12 9.00067C11.448 9.00067 11 8.55267 11 8.00067C11 7.44867 11.448 7.00067 12 7.00067C12.552 7.00067 13 7.44867 13 8.00067ZM10.5 15.5007C10.5 14.6737 11.173 14.0007 12 14.0007C12.827 14.0007 13.5 14.6737 13.5 15.5007C13.5 16.3277 12.827 17.0007 12 17.0007C11.173 17.0007 10.5 16.3277 10.5 15.5007ZM12 19.0007C10.07 19.0007 8.5 17.4307 8.5 15.5007C8.5 13.5707 10.07 12.0007 12 12.0007C13.93 12.0007 15.5 13.5707 15.5 15.5007C15.5 17.4307 13.93 19.0007 12 19.0007ZM12 5.00067C13.654 5.00067 15 6.34667 15 8.00067C15 9.65467 13.654 11.0007 12 11.0007C10.346 11.0007 9 9.65467 9 8.00067C9 6.34667 10.346 5.00067 12 5.00067ZM17 2.00067H7C5.346 2.00067 4 3.34667 4 5.00067V19.0007C4 20.6547 5.346 22.0007 7 22.0007H17C18.654 22.0007 20 20.6547 20 19.0007V5.00067C20 3.34667 18.654 2.00067 17 2.00067Z" fill="white"/>
</mask>
<g mask="url(#mask0)">
<rect width="24" height="24" fill="#1684F2"/>
</g>
</svg>
