<svg width="25" height="25" viewBox="0 0 25 25" fill="none" xmlns="http://www.w3.org/2000/svg">
<path fill-rule="evenodd" clip-rule="evenodd" d="M20.5037 4.99843C20.1567 4.65043 19.5937 4.65043 19.2467 4.99843L5.02467 19.2204C4.85067 19.3944 4.76367 19.6214 4.76367 19.8494C4.76367 20.0764 4.85067 20.3044 5.02467 20.4774C5.37167 20.8244 5.93367 20.8244 6.28167 20.4774L20.5037 6.25543C20.8507 5.90743 20.8507 5.34543 20.5037 4.99843ZM16.764 19.7377C15.937 19.7377 15.264 19.0647 15.264 18.2377C15.264 17.4107 15.937 16.7377 16.764 16.7377C17.591 16.7377 18.264 17.4107 18.264 18.2377C18.264 19.0647 17.591 19.7377 16.764 19.7377ZM16.764 14.7377C14.834 14.7377 13.264 16.3077 13.264 18.2377C13.264 20.1677 14.834 21.7377 16.764 21.7377C18.694 21.7377 20.264 20.1677 20.264 18.2377C20.264 16.3077 18.694 14.7377 16.764 14.7377ZM8.76397 6.73773C9.59097 6.73773 10.264 7.41073 10.264 8.23773C10.264 9.06473 9.59097 9.73773 8.76397 9.73773C7.93697 9.73773 7.26397 9.06473 7.26397 8.23773C7.26397 7.41073 7.93697 6.73773 8.76397 6.73773ZM8.76397 11.7377C10.694 11.7377 12.264 10.1677 12.264 8.23773C12.264 6.30773 10.694 4.73773 8.76397 4.73773C6.83397 4.73773 5.26397 6.30773 5.26397 8.23773C5.26397 10.1677 6.83397 11.7377 8.76397 11.7377Z" fill="white"/>
<mask id="mask0" mask-type="alpha" maskUnits="userSpaceOnUse" x="4" y="4" width="17" height="18">
<path fill-rule="evenodd" clip-rule="evenodd" d="M20.5037 4.99843C20.1567 4.65043 19.5937 4.65043 19.2467 4.99843L5.02467 19.2204C4.85067 19.3944 4.76367 19.6214 4.76367 19.8494C4.76367 20.0764 4.85067 20.3044 5.02467 20.4774C5.37167 20.8244 5.93367 20.8244 6.28167 20.4774L20.5037 6.25543C20.8507 5.90743 20.8507 5.34543 20.5037 4.99843ZM16.764 19.7377C15.937 19.7377 15.264 19.0647 15.264 18.2377C15.264 17.4107 15.937 16.7377 16.764 16.7377C17.591 16.7377 18.264 17.4107 18.264 18.2377C18.264 19.0647 17.591 19.7377 16.764 19.7377ZM16.764 14.7377C14.834 14.7377 13.264 16.3077 13.264 18.2377C13.264 20.1677 14.834 21.7377 16.764 21.7377C18.694 21.7377 20.264 20.1677 20.264 18.2377C20.264 16.3077 18.694 14.7377 16.764 14.7377ZM8.76397 6.73773C9.59097 6.73773 10.264 7.41073 10.264 8.23773C10.264 9.06473 9.59097 9.73773 8.76397 9.73773C7.93697 9.73773 7.26397 9.06473 7.26397 8.23773C7.26397 7.41073 7.93697 6.73773 8.76397 6.73773ZM8.76397 11.7377C10.694 11.7377 12.264 10.1677 12.264 8.23773C12.264 6.30773 10.694 4.73773 8.76397 4.73773C6.83397 4.73773 5.26397 6.30773 5.26397 8.23773C5.26397 10.1677 6.83397 11.7377 8.76397 11.7377Z" fill="white"/>
</mask>
<g mask="url(#mask0)">
<rect x="0.763672" y="0.737671" width="24" height="24" fill="white"/>
</g>
</svg>
