<svg width="39" height="32" viewBox="0 0 39 32" fill="none" xmlns="http://www.w3.org/2000/svg">
<path d="M33.4867 31.2804H5.55187C2.81518 31.2804 0.646484 29.0601 0.646484 26.375V11.6073C0.646484 8.87057 2.86682 6.70188 5.55187 6.70188H9.68271C10.1474 6.70188 10.5089 6.34044 10.5089 5.87572C10.5089 3.13903 12.7292 0.970337 15.4143 0.970337H23.6243C26.361 0.970337 28.5297 3.19067 28.5297 5.87572C28.5297 6.34044 28.8912 6.70188 29.3559 6.70188H33.4867C36.2234 6.70188 38.3921 8.92221 38.3921 11.6073V26.375C38.4437 29.0601 36.2234 31.2804 33.4867 31.2804ZM5.60351 10.7294C5.13878 10.7294 4.77733 11.0909 4.77733 11.5556V26.3234C4.77733 26.7881 5.13878 27.1496 5.60351 27.1496H33.5384C34.0031 27.1496 34.3645 26.7881 34.3645 26.3234V11.5556C34.3645 11.0909 34.0031 10.7294 33.5384 10.7294H29.4075C26.6708 10.7294 24.5021 8.50912 24.5021 5.82406C24.5021 5.35934 24.1407 4.99791 23.676 4.99791H15.4659C15.0012 4.99791 14.6397 5.35934 14.6397 5.82406C14.6397 8.56075 12.4194 10.7294 9.73435 10.7294H5.60351Z" fill="white"/>
<path d="M19.544 25.9636C15.0001 25.9636 11.334 22.2975 11.334 17.7535C11.334 13.2096 15.0001 9.54346 19.544 9.54346C24.088 9.54346 27.7541 13.2096 27.7541 17.7535C27.7541 22.2458 24.088 25.9636 19.544 25.9636ZM19.544 13.6227C17.2721 13.6227 15.4132 15.4816 15.4132 17.7535C15.4132 20.0255 17.2721 21.8844 19.544 21.8844C21.816 21.8844 23.6749 20.0255 23.6749 17.7535C23.6233 15.4816 21.816 13.6227 19.544 13.6227Z" fill="white"/>
</svg>
