<svg width="25" height="25" viewBox="0 0 25 25" fill="none" xmlns="http://www.w3.org/2000/svg">
<path fill-rule="evenodd" clip-rule="evenodd" d="M21.0376 9.40424C20.6716 6.85324 18.6486 4.83024 16.0976 4.46424V9.40424H21.0376ZM21.9306 11.0702H15.2646C14.8046 11.0702 14.4306 10.6982 14.4306 10.2372V3.57024C14.4306 3.11024 14.8046 2.73724 15.2646 2.73724C19.3996 2.73724 22.7646 6.10224 22.7646 10.2372C22.7646 10.6982 22.3906 11.0702 21.9306 11.0702ZM13.6986 12.7152H21.8476C22.3896 12.7152 22.8136 13.1872 22.7596 13.7262C22.2156 19.1522 17.3436 23.3042 11.6456 22.6742C7.06061 22.1682 3.33361 18.4412 2.82661 13.8562C2.19861 8.15824 6.34861 3.28524 11.7756 2.74224C12.3156 2.68824 12.7866 3.11124 12.7866 3.65324V11.8042C12.7866 12.3072 13.1946 12.7152 13.6986 12.7152Z" fill="white"/>
<mask id="mask0" mask-type="alpha" maskUnits="userSpaceOnUse" x="2" y="2" width="21" height="21">
<path fill-rule="evenodd" clip-rule="evenodd" d="M21.0376 9.40424C20.6716 6.85324 18.6486 4.83024 16.0976 4.46424V9.40424H21.0376ZM21.9306 11.0702H15.2646C14.8046 11.0702 14.4306 10.6982 14.4306 10.2372V3.57024C14.4306 3.11024 14.8046 2.73724 15.2646 2.73724C19.3996 2.73724 22.7646 6.10224 22.7646 10.2372C22.7646 10.6982 22.3906 11.0702 21.9306 11.0702ZM13.6986 12.7152H21.8476C22.3896 12.7152 22.8136 13.1872 22.7596 13.7262C22.2156 19.1522 17.3436 23.3042 11.6456 22.6742C7.06061 22.1682 3.33361 18.4412 2.82661 13.8562C2.19861 8.15824 6.34861 3.28524 11.7756 2.74224C12.3156 2.68824 12.7866 3.11124 12.7866 3.65324V11.8042C12.7866 12.3072 13.1946 12.7152 13.6986 12.7152Z" fill="white"/>
</mask>
<g mask="url(#mask0)">
<rect x="0.763672" y="0.737671" width="24" height="24" fill="white"/>
</g>
</svg>
