<svg width="15" height="15" viewBox="0 0 15 15" fill="none" xmlns="http://www.w3.org/2000/svg">
<path d="M6.02295 11.6997C2.76408 11.6997 0.125 9.19744 0.125 6.10749C0.125 3.01755 2.76408 0.515259 6.02295 0.515259C9.28181 0.515259 11.9209 3.01755 11.9209 6.10749C11.9209 9.19744 9.28181 11.6997 6.02295 11.6997ZM6.02295 2.01284C3.64377 2.01284 1.70443 3.85164 1.70443 6.10749C1.70443 8.36334 3.64377 10.2021 6.02295 10.2021C8.40212 10.2021 10.3414 8.36334 10.3414 6.10749C10.3414 3.85164 8.40212 2.01284 6.02295 2.01284Z" fill="#6C88A9"/>
<path d="M13.239 14.0709C13.0391 14.0709 12.8392 13.9951 12.6792 13.8434L8.88054 10.2417C8.56065 9.93834 8.56065 9.46441 8.88054 9.18006C9.20043 8.87675 9.70028 8.87675 10.0002 9.18006L13.7988 12.7818C14.1187 13.0851 14.1187 13.5591 13.7988 13.8434C13.6389 13.9951 13.439 14.0709 13.239 14.0709Z" fill="#6C88A9"/>
</svg>
