<svg width="45" height="25" viewBox="0 0 45 25" fill="none" xmlns="http://www.w3.org/2000/svg">
<g clip-path="url(#clip0)">
<path fill-rule="evenodd" clip-rule="evenodd" d="M17.3699 13.2168L20.593 0.0373535H27.6505L23.9834 15.0303C23.2775 17.9241 21.0763 18.6187 19.0399 18.6187H2.77533C0.983596 18.6187 -0.517915 17.8748 0.294942 14.534L1.76079 8.55409C2.50109 5.5197 4.80931 4.82509 6.47807 4.82509H17.8335L16.9173 8.56371H11.1203C10.2694 8.56371 9.80205 8.74517 9.56471 9.71498L8.62765 13.5341C8.29439 14.9041 8.78506 14.9978 9.80943 14.9978H15.1219C16.0946 14.9978 16.9493 14.9389 17.3699 13.2168ZM36.5089 4.82293H43.3647L40.0432 18.6189H33.1874L36.5089 4.82293ZM28.1038 4.82293H34.9596L31.7672 17.7897C30.4353 23.224 26.7154 24.481 24.1969 24.481H14.5791L15.7289 19.8062C15.7289 19.8062 20.8446 19.8303 21.0266 19.8086C22.8565 19.6596 24.6777 18.7896 25.3086 16.207L28.1038 4.82293Z" fill="white"/>
</g>
<defs>
<clipPath id="clip0">
<rect x="0.763672" y="0.0373535" width="43.2963" height="24.4461" rx="12.2231" fill="white"/>
</clipPath>
</defs>
</svg>
