<svg width="310" height="258" viewBox="0 0 310 258" fill="none" xmlns="http://www.w3.org/2000/svg">
<path d="M182.326 147.623C190.315 148.728 202.153 159.585 206.929 165.781C214.292 175.342 220.688 188.076 225.127 204.227C229.565 220.379 234.15 227.751 236.298 227.667C238.447 227.583 241.798 224.463 243.577 216.877C245.357 209.292 245.251 202.279 245.579 195.688C245.708 193.105 245.224 188.71 247.173 186.691C249.312 184.472 253.799 185.648 256.556 186.114C264.261 187.423 273.733 187.126 280.488 191.174C289.543 196.593 287.323 205.985 287.705 212.718C288.593 228.351 288.078 232.248 287.008 235.963C286.178 238.83 285.02 248.661 278.606 248.945C272.192 249.229 279.245 239.651 282.428 245.683C284.23 249.096 280.359 254.893 278.113 256.646" stroke="#003166" stroke-linecap="round" stroke-linejoin="round"/>
<path d="M50.314 245.284C46.8741 237.294 52.875 227.632 51.8541 220.37C50.9886 214.201 47.9704 208.431 47.6109 202.093C47.4143 197.337 47.5492 192.573 48.0148 187.836C48.6096 180.854 49.4529 174.965 53.3676 168.884C57.0605 163.114 63.4208 160.162 68.9956 156.434C74.1797 152.967 81.7119 148.791 87.5263 148.524C93.3407 148.258 96.8472 155.404 91.299 164.059C102.173 165.781 102.884 190.104 102.71 194.325C102.551 198.249 102.267 208.919 97.8059 210.748C94.0376 212.292 94.0997 209.261 94.4237 206.198C95.0229 200.521 97.0469 194.529 98.3252 188.972C100.988 177.348 107.708 166.305 116.714 158.378C120.105 155.391 124.179 153.602 128.227 151.76C133.052 149.568 141.845 147.632 141.845 147.632" stroke="#003166" stroke-linecap="round" stroke-linejoin="round"/>
<path d="M248.976 185.479C248.976 185.479 247.312 173.113 250.538 170.473C253.765 167.832 261.244 169.225 267.817 169.629C274.391 170.033 278.257 171.316 280.507 173.149C282.757 174.982 282.034 179.114 282.034 182.092V191.746" stroke="#003166" stroke-linecap="round" stroke-linejoin="round"/>
<path d="M250.999 162.945C242.859 158.303 239.06 147.051 244.009 138.92C247.941 132.462 262.584 125.183 267.657 134.397C271.483 141.357 260.387 142.169 256.392 140.806C259.526 141.397 262.606 146.616 262.606 151.507" stroke="#003166" stroke-linecap="round" stroke-linejoin="round"/>
<path d="M253.484 125.987C257.589 124.209 261.795 122.675 266.081 121.393C270.608 120.141 275.295 119.724 278.775 123.306C284.421 129.12 278.331 137.349 273.591 142.17C269.507 146.351 264.754 146.164 263.635 142.205" stroke="#003166" stroke-linecap="round" stroke-linejoin="round"/>
<path d="M243.721 138.431C243.721 124.472 243.685 110.873 247.445 97.5396C248.186 94.9209 249.628 85.9507 255.878 89.1064C259.38 90.8818 257.303 101.601 257.089 105.085C256.801 109.808 256.726 119.51 256.726 124.073" stroke="#003166" stroke-linecap="round" stroke-linejoin="round"/>
<path d="M268.615 130.389C267.823 131.157 267.174 132.058 266.697 133.052" stroke="#003166" stroke-linecap="round" stroke-linejoin="round"/>
<path d="M281.252 130.008C288.576 132.036 285.491 141.158 281.457 146.022C277.422 150.887 273.441 152.334 270.724 151.078C268.505 150.052 266.787 147.398 269.087 145.006" stroke="#003166" stroke-linecap="round" stroke-linejoin="round"/>
<path d="M285.854 137.686C291.278 138.627 289.516 147.823 287.239 150.881C285.654 153.007 282.8 155.666 279.693 154.916C277.421 154.37 276.214 152.253 277.403 149.94" stroke="#003166" stroke-linecap="round" stroke-linejoin="round"/>
<path d="M290.063 146.474C292.527 148.76 292.136 154.237 289.899 156.612C287.591 159.057 281.968 158.622 283.197 154.437" stroke="#003166" stroke-linecap="round" stroke-linejoin="round"/>
<path d="M286.614 158.734C285.456 164.304 280.999 166.195 277.422 166.009" stroke="#003166" stroke-linecap="round" stroke-linejoin="round"/>
<path d="M279.099 166.007L278.717 171.631" stroke="#003166" stroke-linecap="round" stroke-linejoin="round"/>
<path d="M56.281 165.334C56.281 165.334 50.5109 145.804 52.708 144.562C54.905 143.319 64.7496 138.135 70.2311 135.529C72.8587 134.278 80.7415 129.795 83.1028 130.745C85.4641 131.694 87.5413 148.525 87.5413 148.525" stroke="#003166" stroke-linecap="round" stroke-linejoin="round"/>
<path d="M82.8688 129.626C84.9771 123.447 82.2386 112.515 86.5528 107.837C92.0876 101.836 102.398 95.5781 98.8963 91.7788C94.48 86.9808 88.8874 92.5333 84.8662 94.6682C80.4632 97.0073 76.2111 99.4618 71.2 102.436C50.277 93.9048 41.4932 98.6274 29.638 101.193C25.1506 102.178 15.0664 105.729 22.5009 110.141C28.444 113.665 38.0356 114.304 41.5864 120.434C43.7834 124.211 45.3547 129.28 46.4066 133.465C47.1301 136.346 48.5992 143.421 52.7137 144.561" stroke="#003166" stroke-linecap="round" stroke-linejoin="round"/>
<path d="M21.5977 104.73C25.5257 103.621 35.4768 106.95 37.9225 108.499" stroke="#003166" stroke-linecap="round" stroke-linejoin="round"/>
<path d="M31.9316 100.9C36.2503 101.677 41.177 104.007 44.5725 105.498" stroke="#003166" stroke-linecap="round" stroke-linejoin="round"/>
<path d="M43.4277 98.9861C46.9075 100.034 50.4139 102.253 53.765 103.58" stroke="#003166" stroke-linecap="round" stroke-linejoin="round"/>
<path d="M296.826 47.0157C294.455 29.2839 284.682 17.1003 269.307 12.7062C260.847 10.2916 252.605 10.1052 245.477 12.1602C237.487 14.4682 231.105 19.4038 226.489 26.8339C221.91 34.1501 219.393 42.5678 219.205 51.1968C219.037 60.1981 221.566 68.6712 226.52 75.6929C231.726 83.0785 239.391 87.3883 248.082 87.8366C250.155 87.9431 252.245 88.0186 254.345 88.0186C261.003 88.0186 267.714 87.2596 273.639 84.3568C281.748 80.3622 287.296 75.573 291.096 69.226C294.522 63.4737 297.838 54.6189 296.826 47.0157Z" fill="#FDCCBF"/>
<path d="M238.979 16.9587C238.979 16.9587 243.173 28.055 244.806 32.6621C246.511 37.4779 252.196 50.5315 252.196 50.5315C252.196 50.5315 271.69 54.5794 276.892 55.8311C281.943 57.0472 287.349 57.9216 291.828 59.4707" stroke="#003166" stroke-linecap="round" stroke-linejoin="round"/>
<path d="M252.385 49.906C252.385 49.906 284.488 33.3105 289.149 29.9905" stroke="#003166" stroke-linecap="round" stroke-linejoin="round"/>
<path d="M214.61 30.9448H210.779" stroke="#003166" stroke-linecap="round" stroke-linejoin="round"/>
<path d="M269.928 0.971191L274.291 1.14429" stroke="#003166" stroke-linecap="round" stroke-linejoin="round"/>
<path d="M304.117 43.2612L308.724 43.1414" stroke="#003166" stroke-linecap="round" stroke-linejoin="round"/>
<path d="M141.847 147.624C145.727 142.666 146.494 135.933 147.4 129.591C147.977 125.565 148.043 121.486 148.656 117.456C149.06 114.819 149.45 109 149.45 109C149.45 109 138.012 110.168 139.548 101.859C140.396 97.2916 146.122 92.0364 150.973 93.9583C152.136 84.5442 151.936 75.0503 160.902 69.4001C170.977 63.0575 182.047 74.8816 189.113 81.6059C194.083 86.3314 198.628 91.4852 202.695 97.0075C196.8 97.7443 182.886 97.1229 182.886 97.1229C182.331 108.042 180.831 135.52 180.831 135.52C183.591 144.562 182.633 154.877 178.363 155.028C174.093 155.178 171.643 147.615 168.336 143.909C166.645 148.383 161.075 155.605 155.26 155.613C149.446 155.622 143.907 151.224 141.847 147.624Z" stroke="#003166" stroke-linecap="round" stroke-linejoin="round"/>
<path d="M147.209 132.688C154.311 140.363 170.928 139.315 179.379 134.988" stroke="#003166" stroke-linecap="round" stroke-linejoin="round"/>
<path d="M144.145 101.668C144.649 101.622 145.157 101.703 145.622 101.904C146.087 102.105 146.495 102.419 146.808 102.817" stroke="#003166" stroke-linecap="round" stroke-linejoin="round"/>
<path d="M163.42 101.104C164.516 103.075 166.784 103.519 168.782 102.636" stroke="#003166" stroke-linecap="round" stroke-linejoin="round"/>
<path d="M165.98 88.9696V87.3762" stroke="#003166" stroke-linecap="round" stroke-linejoin="round"/>
<path d="M174.412 87.882V85.9646" stroke="#003166" stroke-linecap="round" stroke-linejoin="round"/>
<path d="M167.007 159.515C167.451 163.931 165.143 170.478 164.344 174.797C163.092 181.539 160.882 187.917 160.86 193.296C160.837 198.676 162 201.392 164.996 203.505C167.992 205.618 169.151 207.078 168.947 210.913C168.663 216.203 166.519 222.009 164.326 226.771C162.955 229.754 160.376 232.985 163.376 235.551C166.963 238.587 171.366 235.919 172.737 242.209C173.545 245.959 172.258 250.868 171.268 254.392" stroke="#003166" stroke-linecap="round" stroke-linejoin="round"/>
<path d="M183.592 185.861C189.282 185.861 194.2 185.338 199.672 186.141" stroke="#003166" stroke-linecap="round" stroke-linejoin="round"/>
<path d="M195.591 182.86L195.205 190.903" stroke="#003166" stroke-linecap="round" stroke-linejoin="round"/>
<path d="M190.993 182.094C190.993 185.645 191.725 189.897 190.611 193.19" stroke="#003166" stroke-linecap="round" stroke-linejoin="round"/>
<path d="M166.354 189.265L167.889 188.497" stroke="#003166" stroke-linecap="round" stroke-linejoin="round"/>
<path d="M173.604 214.902L174.944 214.57" stroke="#003166" stroke-linecap="round" stroke-linejoin="round"/>
<path d="M178.801 243.957L177.656 244.036" stroke="#003166" stroke-linecap="round" stroke-linejoin="round"/>
<path d="M144.939 108.787C145.471 110.767 146.215 112.684 147.159 114.504C147.253 114.653 147.38 114.779 147.53 114.873C147.679 114.967 147.847 115.027 148.023 115.048C148.198 115.07 148.376 115.052 148.544 114.996C148.711 114.94 148.864 114.848 148.992 114.726C149.258 112.062 149.462 109 149.462 109C147.952 109.124 146.432 109.052 144.939 108.787Z" fill="#333333"/>
<path d="M176.955 65.7819L167.132 64.7211C164.229 64.406 161.3 63.94 158.397 64.4948C154.474 65.2449 148.881 68.3341 148.428 72.7992C148.302 73.6719 148.499 74.5607 148.983 75.2981C149.049 75.3894 149.12 75.4769 149.196 75.5599C144.336 78.7734 144.092 86.4076 143.786 91.8137C143.715 93.0565 143.666 94.3081 143.635 95.5598C144.906 94.5076 146.441 93.8231 148.073 93.5802C148.757 95.1034 149.529 96.5854 150.386 98.0187C150.518 98.2292 150.714 98.3917 150.945 98.4822C151.177 98.5727 151.431 98.5863 151.671 98.5211C151.911 98.456 152.123 98.3154 152.277 98.1203C152.431 97.9251 152.518 97.6857 152.525 97.4373C152.463 94.6533 153.124 91.9008 154.443 89.448C155.512 87.4951 156.95 85.764 157.709 83.6469C158.468 81.5297 158.246 78.8311 156.822 77.1179C159.125 76.5364 161.393 74.619 162.867 72.9634C164.988 70.5755 166.861 69.0531 170.199 69.0664C172.769 69.0664 175.25 69.346 177.532 67.9346C178.566 67.2999 178.046 65.9151 176.955 65.7819Z" fill="#333333"/>
<path d="M251.002 168.622V162.945" stroke="#003166" stroke-linecap="round" stroke-linejoin="round"/>
<path d="M68.331 124.263C67.6748 124.212 67.0163 124.325 66.4149 124.593C65.8136 124.86 65.2883 125.273 64.8867 125.794" stroke="#003166" stroke-linecap="round" stroke-linejoin="round"/>
<path d="M92.5337 35.9119C92.5115 35.6279 92.4937 35.3172 92.4715 34.9843C92.1608 30.062 91.646 21.8197 86.7947 19.7203C79.4712 16.5512 73.5325 26.0185 71.8858 28.9968C70.3678 31.7442 69.1161 34.9843 67.7979 38.4197C64.5534 46.8528 61.1979 55.5479 53.7723 56.8261C48.1531 57.7937 46.2712 54.1275 43.6614 48.0646C41.7129 43.5417 39.7022 38.8635 34.8687 37.6385C28.5217 36.0318 19.0854 39.0411 10.1995 62.4941C10.1148 62.7237 10.0844 62.9698 10.1108 63.2131L14.3273 102.458C14.3679 102.84 14.5481 103.193 14.8333 103.449C15.1184 103.706 15.4884 103.848 15.8719 103.848C15.9658 103.848 16.0594 103.839 16.1516 103.821L94.2691 89.5112C94.642 89.4436 94.9772 89.2421 95.2118 88.9445C95.4464 88.647 95.5642 88.2739 95.543 87.8956C95.5296 87.4784 93.1861 45.255 92.5337 35.9119Z" fill="#7FB9F9" fill-opacity="0.4"/>
<path d="M107.68 87.0115C107.68 87.0115 73.4677 91.7296 66.0509 92.9369C53.8318 94.9253 15.8693 102.298 15.8693 102.298C15.8693 102.298 9.21156 40.1587 7.59595 25.7868C7.1521 21.7611 6.38867 11.9387 6.38867 11.9387" stroke="#003166" stroke-linecap="round" stroke-linejoin="round"/>
<path d="M1.66602 17.4336C3.17067 15.5073 6.38858 11.9387 6.38858 11.9387L12.3273 15.6271" stroke="#003166" stroke-linecap="round" stroke-linejoin="round"/>
<path d="M104.58 83.0115C106.018 84.2187 107.527 85.1952 109.019 86.3492C108.086 88.1868 106.799 90.0154 106.222 91.9639" stroke="#003166" stroke-linecap="round" stroke-linejoin="round"/>
<path d="M3.58961 35.1531H1.09961" stroke="#003166" stroke-linecap="round" stroke-linejoin="round"/>
<path d="M8.24 76.1729H5.75" stroke="#003166" stroke-linecap="round" stroke-linejoin="round"/>
<path d="M6.0754 53.8779H3.58984" stroke="#003166" stroke-linecap="round" stroke-linejoin="round"/>
<path d="M9.92554 94.5479H7.43555" stroke="#003166" stroke-linecap="round" stroke-linejoin="round"/>
</svg>
